<?xml version="1.0" encoding="utf-8"?>
<!-- Generator: Adobe Illustrator 25.1.0, SVG Export Plug-In . SVG Version: 6.00 Build 0)  -->
<svg version="1.1" id="Layer_1" xmlns="http://www.w3.org/2000/svg" xmlns:xlink="http://www.w3.org/1999/xlink" x="0px" y="0px"
	 viewBox="0 0 480 480" style="enable-background:new 0 0 480 480;" xml:space="preserve">
<style type="text/css">
	.st0{fill:#FFFFFF;}
</style>
<g>
	<path class="st0" d="M361.68,243.09c0.97,1.37,1.95,2.74,2.92,4.11c-6.03-4.54-11.95-5.34-18.07,0.53
		c-0.07-0.36-0.14-0.72-0.2-1.08c0.88-1.13,1.76-2.25,3.18-4.07c-3.44,0-6.47-0.7-9.01,0.12c-9.59,3.1-18.99,3.19-28.55-0.01
		c-2.21-0.74-4.76-0.44-8.2-0.69c1.76,2.42,2.76,3.8,3.76,5.17c-5.96-4.39-11.89-5.22-18.27-0.6c0.84-1.1,1.68-2.21,3.01-3.96
		c-3.4,0-6.42-0.69-8.96,0.12c-9.33,2.99-18.5,3.17-27.84,0.16c-2.4-0.78-5.09-0.69-7.64-1c-0.17,0.33-0.33,0.66-0.5,0.99
		c1.02,1.44,2.03,2.88,3.05,4.32c-6.05-4.66-11.98-5.09-18.31-0.52c0.85-1.14,1.71-2.27,3.09-4.12c-3.38,0-6.4-0.69-8.93,0.12
		c-9.6,3.1-18.99,3.22-28.56-0.04c-2.22-0.76-4.82-0.42-8.26-0.65c1.76,2.36,2.78,3.73,3.8,5.11c-5.95-4.21-11.87-5.27-18.23-0.53
		c0.84-1.11,1.68-2.22,3.37-4.46c-3.94,0.26-7.01-0.1-9.71,0.74c-9.21,2.88-18.27,2.98-27.47,0.03c-2.4-0.77-5.08-0.7-7.63-1.02
		c-0.16,0.33-0.33,0.67-0.49,1c1.01,1.44,2.02,2.88,3.04,4.32c-6.01-4.54-11.93-5.2-18.26-0.5c0.83-1.15,1.66-2.29,2.96-4.09
		c-3.33,0-6.35-0.69-8.88,0.12c-9.6,3.08-18.99,3.19-28.56-0.07c-2.2-0.75-4.78-0.4-8.23-0.63c1.8,2.39,2.83,3.75,3.85,5.11
		c-6.06-4.61-12.11-4.93-18.48-0.58c0.89-1.03,1.79-2.05,3.56-4.08c-3.66,0-6.44-0.32-9.11,0.08c-4.02,0.6-7.95,1.79-11.95,2.51
		c-0.78,0.14-1.75-0.73-2.63-1.13c0.79-0.54,1.51-1.4,2.37-1.58c3.1-0.63,6.24-1.03,9.72-1.57c-3.65-3.33-9.1-1.01-12.99-4.97
		c9.08-1.93,16.22,5.58,24.49,1.29c-0.69-1.18-1.47-2.52-2.39-4.09c3.02,1.26,5.75,3.29,8.5,3.32c2.87,0.03,5.76-1.85,8.97-3.02
		c-1.07,1.43-2.06,2.74-3.82,5.08c3.33-0.17,5.93,0.26,8.12-0.51c9.55-3.34,18.91-3.28,28.52-0.08c2.76,0.92,6.1,0.14,9.8,0.14
		c-1.31-2.14-2.15-3.5-2.99-4.87c5.74,4.33,11.37,5.44,17.06-0.84c0.11,0.37,0.23,0.75,0.34,1.12c-0.95,1.33-1.89,2.66-3.39,4.77
		c2.9,0,5.42,0.63,7.44-0.11c9.8-3.53,19.39-3.48,29.23-0.06c2.63,0.91,5.84,0.14,9.45,0.14c-1.31-2.29-2.09-3.65-2.87-5.01
		c5.77,4.54,11.29,5.21,16.9-0.8c0.13,0.36,0.26,0.73,0.38,1.09c-0.98,1.32-1.97,2.64-3.46,4.63c2.96,0,5.61,0.64,7.76-0.11
		c9.69-3.39,19.16-3.34,28.87,0.01c2.66,0.92,5.91,0.14,9.59,0.14c-1.34-2.18-2.18-3.55-3.15-5.12c3.02,1.27,5.77,3.31,8.57,3.37
		c2.88,0.06,5.8-1.81,8.93-2.92c-0.94,1.31-1.9,2.65-3.39,4.73c2.89,0,5.41,0.62,7.43-0.11c9.8-3.53,19.4-3.45,29.24-0.08
		c2.65,0.9,5.86,0.14,9.48,0.14c-1.32-2.25-2.11-3.61-2.91-4.97c5.79,5.07,11.42,4.68,17.36,0.3c-1.01,1.32-2.01,2.63-3.6,4.71
		c3.02,0,5.54,0.62,7.59-0.11c9.8-3.48,19.4-3.49,29.24-0.04c2.63,0.92,5.86,0.14,9.57,0.14c-1.43-2.28-2.28-3.64-3.13-5
		c5.74,4.24,11.38,5.48,17.08-0.88c0.1,0.38,0.2,0.76,0.31,1.14c-0.95,1.34-1.9,2.69-3.55,5.03c3.25-0.17,5.86,0.26,8.04-0.51
		c9.56-3.4,18.92-3.23,28.52-0.07c2.75,0.9,6.04,0.14,9.72,0.14c-1.29-2.21-2.07-3.56-2.86-4.92c5.79,5.16,11.43,4.75,17.38,0.4
		c-0.98,1.24-1.95,2.48-3.22,4.11c7.75,3.25,14.26-3.85,21.52-1.92c0.19,2.14,0.18,2.07-4.56,2.77c-2.24,0.33-4.44,0.97-6.66,2.21
		c2.27,0.51,4.6,0.86,6.8,1.57c1.68,0.54,4.95-1.51,4.84,2.61c-7.52,1.69-14.15-4.55-22.01-2.07c1.23,1.68,2.25,3.06,3.26,4.44
		c-5.95-4.28-11.88-5.37-18.27-0.58c0.81-1.12,1.63-2.25,3.18-4.4c-3.67,0.16-6.65-0.32-9.21,0.52c-9.46,3.09-18.74,3.17-28.19,0.03
		c-2.27-0.76-4.87-0.56-7.32-0.8C361.91,242.34,361.79,242.71,361.68,243.09z M338.39,240.35c-8.31-3.07-16.01-3.13-24.33,0.01
		C322.4,243.05,330.09,243.04,338.39,240.35z M281.31,240.34c-8.6-3.08-16.27-3.03-24.5,0.01
		C265.08,243.02,272.79,243.05,281.31,240.34z M166.62,240.47c-6.09-3.26-18.65-3.26-23.41,0.11
		C150.93,243.02,158.53,243.01,166.62,240.47z M371.18,240.32c8.42,2.78,16.05,2.68,24.39,0.02
		C387.25,237.3,379.62,237.27,371.18,240.32z M85.29,240.38c8.45,2.56,16.08,2.72,24.57-0.09
		C101.36,237.35,93.73,237.26,85.29,240.38z M224.13,240.3c-8.44-2.95-16.06-3.06-24.5,0.06
		C208.06,242.97,215.68,243.09,224.13,240.3z"/>
</g>
</svg>
