<?xml version="1.0" encoding="utf-8"?>
<!-- Generator: Adobe Illustrator 25.1.0, SVG Export Plug-In . SVG Version: 6.00 Build 0)  -->
<svg version="1.1" id="Layer_1" xmlns="http://www.w3.org/2000/svg" xmlns:xlink="http://www.w3.org/1999/xlink" x="0px" y="0px"
	 viewBox="0 0 480 480" style="enable-background:new 0 0 480 480;" xml:space="preserve">
<style type="text/css">
	.st0{fill:#FFFFFF;}
	.st1{fill:#B72025;}
</style>
<g>
	<path class="st0" d="M240.12,85.42c5.45-0.19,10.56,1.35,15.32,4.12c34.88,20.27,69.76,40.55,104.63,60.85
		c6.04,3.52,5.95,8.85-0.15,12.4c-34.22,19.91-68.48,39.75-102.64,59.77c-11.77,6.9-23.11,6.73-34.83-0.15
		c-33.96-19.93-68.05-39.65-102.09-59.45c-6.49-3.77-6.57-8.96-0.12-12.71C155,130,189.78,109.75,224.57,89.52
		C229.32,86.76,234.45,85.23,240.12,85.42z M239.59,168.87c7.36-0.08,13.2-1.8,17.16-4.94c5.47-4.34,5.45-10.06-0.06-14.34
		c-8.26-6.42-24.94-6.65-33.35-0.45c-6.15,4.53-6.01,11.14,0.35,15.39C228.63,167.81,234.21,168.75,239.59,168.87z"/>
	<path class="st0" d="M246.85,314.89c0-21.08,0.08-42.16-0.06-63.23c-0.03-4.97,1.78-8.22,6.15-10.75
		c36.61-21.16,73.12-42.5,109.72-63.68c2.04-1.18,4.65-2.09,6.94-1.99c4.29,0.2,7.23,3.98,7.23,8.49
		c0.02,39.89,0.18,79.77-0.11,119.66c-0.08,11.17-5.95,19.61-15.61,25.25c-21.05,12.29-42.13,24.54-63.2,36.81
		c-12.3,7.16-24.63,14.29-36.91,21.51c-3.16,1.86-6.26,2.88-9.72,0.87c-3.5-2.04-4.47-5.21-4.46-9.05
		C246.87,357.48,246.84,336.18,246.85,314.89z M329.48,236.55c0,0.54-0.01,1.08,0,1.62c0.23,7.69,5.73,11.26,12.83,8.33
		c9.41-3.89,17.8-17.98,16.78-28.2c-0.8-8.1-6.57-11.5-13.69-7.56C335.38,216.29,330.66,225.4,329.48,236.55z M297.12,327.29
		c0-0.86,0.07-1.73-0.01-2.59c-0.58-6.38-5.25-9.59-11.34-7.67c-1.71,0.54-3.44,1.35-4.87,2.43c-7.98,6.04-12.64,14.02-13.27,24.1
		c-0.25,4.02,0.42,7.97,4.26,10.18c3.68,2.12,7.43,0.99,10.7-1.16C291.64,346.62,296.32,338.03,297.12,327.29z M328.29,273.31
		c-0.13-4.66-0.67-8.53-4.36-10.64c-3.64-2.08-7.43-1.09-10.72,1.09c-9.14,6.05-14.26,14.68-14.72,25.59
		c-0.4,9.34,6.78,13.48,14.71,8.62C322.59,292.21,327.09,283.31,328.29,273.31z"/>
	<path class="st0" d="M233.16,314.95c0,21.29-0.01,42.59,0.01,63.88c0,3.02-0.46,5.77-2.91,7.9c-3.16,2.75-6.38,2.97-10.7,0.46
		c-18.29-10.61-36.56-21.24-54.84-31.87c-15.29-8.89-30.61-17.74-45.85-26.72c-10.44-6.15-15.71-15.38-15.71-27.54
		c-0.01-38.7,0.02-77.39-0.03-116.09c0-3.33,0.65-6.21,3.5-8.23c3.44-2.43,6.76-1.94,10.27,0.12
		c17.12,10.05,34.29,19.99,51.45,29.97c19.4,11.28,38.74,22.65,58.24,33.75c4.83,2.75,6.71,6.3,6.66,11.79
		C233.04,273.22,233.16,294.09,233.16,314.95z M150.62,237.64c-0.22-7.21-2.48-12.85-6.11-17.96c-3.1-4.36-6.75-8.14-12.06-9.84
		c-5.81-1.86-10.36,0.66-11.18,6.64c-1.48,10.8,3.22,19.33,10.87,26.35c2.21,2.03,5.23,3.44,8.13,4.39c4.24,1.4,8.07-0.82,9.47-5.04
		C150.3,240.48,150.44,238.63,150.62,237.64z M182.72,254.32c0.66,9.15,3.32,15.97,8.59,21.38c2.85,2.92,6.43,5.48,10.16,7.08
		c5.1,2.19,9.61-0.57,10.63-6.05c0.52-2.78,0.57-5.86-0.04-8.61c-2.11-9.44-6.85-17.21-15.77-21.75c-4.29-2.19-8.64-1.87-10.67,1.12
		C184.02,249.87,183.32,252.87,182.72,254.32z M150.44,308.3c0.04-9.59-7.25-21.77-15.63-26.12c-7.69-3.99-14.27-0.3-14.1,8.36
		c0.22,11.35,5.3,20.39,14.99,26.35C143.67,321.8,150.4,317.7,150.44,308.3z M181.74,288.27c-0.51-2.05-0.95-5.19-2.05-8.07
		c-3.01-7.89-7.62-14.57-15.85-17.79c-5.88-2.31-10.2,0.17-11.65,6.31c-2.19,9.27,4.79,23.51,14.34,29.1
		c3.38,1.98,7.01,3.15,10.71,1.05C180.89,296.82,181.33,293.05,181.74,288.27z M182.61,326.92c0.32,2.12,0.41,4.31,1.01,6.35
		c2.56,8.68,7.09,16,15.46,20.15c7.01,3.48,12.53,0.21,13.27-7.52c0.97-10.17-6.64-23.82-15.96-28c-2.23-1-5.06-1.48-7.45-1.1
		C184.8,317.46,182.85,321.18,182.61,326.92z"/>
	<path d="M239.59,168.87c-5.38-0.11-10.96-1.05-15.9-4.35c-6.36-4.25-6.5-10.86-0.35-15.39c8.41-6.2,25.09-5.97,33.35,0.45
		c5.51,4.28,5.54,10,0.06,14.34C252.79,167.07,246.96,168.79,239.59,168.87z"/>
	<path d="M329.48,236.55c1.18-11.15,5.91-20.27,15.93-25.81c7.12-3.94,12.89-0.53,13.69,7.56c1.01,10.22-7.37,24.31-16.78,28.2
		c-7.1,2.93-12.6-0.64-12.83-8.33C329.46,237.63,329.48,237.09,329.48,236.55z"/>
	<path d="M297.12,327.29c-0.8,10.74-5.48,19.34-14.54,25.3c-3.26,2.15-7.02,3.28-10.7,1.16c-3.84-2.21-4.51-6.16-4.26-10.18
		c0.63-10.08,5.29-18.06,13.27-24.1c1.43-1.08,3.16-1.89,4.87-2.43c6.09-1.92,10.76,1.29,11.34,7.67
		C297.19,325.55,297.12,326.42,297.12,327.29z"/>
	<path d="M328.29,273.31c-1.2,10-5.7,18.9-15.1,24.65c-7.93,4.86-15.11,0.72-14.71-8.62c0.47-10.91,5.58-19.54,14.72-25.59
		c3.29-2.17,7.08-3.17,10.72-1.09C327.63,264.78,328.16,268.65,328.29,273.31z"/>
	<path d="M150.62,237.64c-0.18,0.99-0.32,2.84-0.88,4.55c-1.4,4.21-5.23,6.43-9.47,5.04c-2.89-0.95-5.92-2.36-8.13-4.39
		c-7.65-7.02-12.35-15.55-10.87-26.35c0.82-5.98,5.38-8.5,11.18-6.64c5.3,1.7,8.96,5.48,12.06,9.84
		C148.14,224.79,150.4,230.43,150.62,237.64z"/>
	<path d="M182.72,254.32c0.59-1.45,1.3-4.45,2.92-6.84c2.03-2.98,6.37-3.31,10.67-1.12c8.91,4.55,13.66,12.31,15.77,21.75
		c0.61,2.75,0.56,5.83,0.04,8.61c-1.02,5.48-5.54,8.24-10.63,6.05c-3.73-1.6-7.32-4.16-10.16-7.08
		C186.04,270.3,183.38,263.48,182.72,254.32z"/>
	<path d="M150.44,308.3c-0.04,9.4-6.77,13.5-14.74,8.59c-9.69-5.97-14.77-15.01-14.99-26.35c-0.17-8.66,6.41-12.35,14.1-8.36
		C143.19,286.53,150.48,298.72,150.44,308.3z"/>
	<path d="M181.74,288.27c-0.41,4.78-0.86,8.54-4.49,10.6c-3.7,2.1-7.33,0.93-10.71-1.05c-9.55-5.59-16.53-19.83-14.34-29.1
		c1.45-6.14,5.77-8.62,11.65-6.31c8.22,3.22,12.84,9.9,15.85,17.79C180.79,283.09,181.24,286.22,181.74,288.27z"/>
	<path d="M182.61,326.92c0.24-5.74,2.19-9.46,6.34-10.12c2.38-0.38,5.22,0.1,7.45,1.1c9.32,4.18,16.92,17.83,15.96,28
		c-0.73,7.73-6.25,11-13.27,7.52c-8.37-4.15-12.91-11.47-15.46-20.15C183.02,331.23,182.94,329.04,182.61,326.92z"/>
	<path class="st1" d="M216,264.83c-8.71-4.62-10.69-11.4-5.52-18.9c2.67-3.87,9.62-5.06,14.1-2.49c6.82,3.9,9.83,14.54-0.58,21.39
		C221.34,264.83,218.67,264.83,216,264.83z"/>
	<path class="st1" d="M139.07,346.41c-0.32-2.02-0.65-4.05-0.97-6.09c-1.94,0.67-3.89,1.34-6.11,2.11
		c-1.89-9.98-10.71-7.13-18.2-7.8c1.45-5.17-2.76-6.19-5.97-7.74c-3.28-1.58-8.41-1.75-4.16-7.52c0.37-0.51-0.43-2.12-0.99-3.03
		c-1.31-2.11-3.27-3.93-4.1-6.19c-0.96-2.59-2.3-6.55-1.11-8.06c1.73-2.21,5.46-3.31,8.53-3.89c3.79-0.71,7.82-0.81,11.67-0.41
		c6.77,0.71,13.46,2.14,18.27,7.62c2.86,3.26,7.51,4.27,11.38,2.5c1.55-0.71,3.43-0.69,4.71-0.92c0.26,2.89-0.02,6.22,0.67,6.43
		c2.7,0.84,5.73,0.56,8.6,0.95c6.58,0.9,6.21-5.94,10.36-9.74c-1.04,5.41-1.17,9.37,5.11,7.71c0.27-0.07,0.95,1.43,1.09,1.65
		c-1.85,1.74-4.74,3.4-4.55,4.52c0.36,2.03,2.55,3.74,4.27,5.97c-1.86,5.59,1.45,15.12,7.13,18.67c-0.88,2.7-1.72,5.45-2.67,8.17
		c-0.88,2.55-1.87,5.06-3.22,8.66c-1.48-0.52-3.92-1.43-6.4-2.2c-1.02-0.31-2.45-0.79-3.17-0.35c-2.26,1.41-3.99,1.37-6.33-0.11
		c-2.25-1.42-8.98,2-10.15,4.7c-0.57,1.33-1.06,2.7-1.83,4.68c-0.8-4.83-0.44-9.56-2.44-12.86
		C146.46,350.55,142.09,348.68,139.07,346.41z"/>
	<path class="st1" d="M219.32,102.06c2.88-0.45,5.75-0.94,8.63-1.32c0.59-0.08,1.43,0.02,1.83,0.39c4.68,4.32,9.67,4.49,15.52,2.3
		c5-1.87,11.48,1.21,14.35,5.76c2.88,4.57,3.34,11.7-0.57,14.7c-3.05,2.35-7.94,3.42-11.9,3.16c-4.38-0.28-6.36,0.56-8.6,4.46
		c-1.64,2.87-5.52,4.76-8.78,6.31c-3.51,1.67-7.64,2.06-11.13,3.77c-1.58,0.78-2.28,3.39-3.34,5.2c-1.4,2.37-2.25,5.44-4.27,6.99
		c-2.98,2.28-6.73,1.89-9.57-0.91c-2.35-2.32-5.66-4.15-3.61-8.76c0.85-1.93,0.04-4.86-0.63-7.15c-1.87-6.36-3.28-12.58,1.11-18.53
		c0.39-0.53,0.57-1.53,1.02-1.66c6.42-1.81,8.32-8.04,12.31-12.23c1.78-1.87,4.73-2.63,7.14-3.9
		C219,101.11,219.16,101.58,219.32,102.06z"/>
	<path class="st1" d="M262.16,178.67c9.31,1.18,18.38,3.01,26.52,7.97c0.92,0.56,2.26,1.73,2.16,2.45
		c-0.61,4.37-0.78,9.09-2.67,12.91c-1.81,3.65-5.45,6.46-8.51,9.39c-0.62,0.6-2.59,0.6-3.39,0.06c-2.7-1.84-4.93-3.69-8.84-3
		c-1.55,0.27-3.94-2.94-5.57-4.89c-0.98-1.17-1.22-2.95-2.35-5.92c-1.94,2.56-3.8,4.17-4.38,6.15c-0.27,0.91,2.17,2.44,3.03,3.89
		c0.86,1.45,1.84,3.16,1.82,4.75c-0.06,3.73,1.37,6.22,4.44,8.28c5.14,3.43,5.02,9.04-0.66,11.49
		c-10.44,4.51-27.84,2.79-29.39-13.53c-0.09-0.98-0.57-2.4-0.1-2.88c3.98-4.12,1.66-7.15-0.93-10.95
		c-4.97-7.29-0.02-19.21,9.03-18.82c3.48,0.15,7.18,1.06,10.29,2.62c5.42,2.71,6.99,2.38,8.46-3.45
		C261.61,183.3,261.76,181.35,262.16,178.67z"/>
	<path class="st1" d="M388.97,305.15c-4.42,1.88-5.43,4.74-5.4,8.95c0.02,2.49-2.5,4.99-3.87,7.5c-0.6,1.1-1.78,2.3-1.65,3.31
		c0.67,4.93-1.18,6.44-5.88,5.11c-1.05-0.3-2.41-0.17-3.43,0.25c-8.07,3.32-14.92,0.14-20.54-4.98c-2.86-2.6-4.27-7.16-5.49-11.1
		c-1.2-3.84-1.11-8.07-1.99-12.03c-1.07-4.82,1.1-7.96,4.7-10.56c1.07-0.77,2.93-1.25,3.21-2.2c1.67-5.93,8.47-6.27,11.46-10.79
		c0.81-1.22,3.22-1.92,4.89-1.92c6.3,0,12.5,1.2,17.42,5.32c1.45,1.21,2.47,4.8,1.74,6.42
		C380.92,295.54,382.08,301.31,388.97,305.15z"/>
	<path class="st1" d="M109.05,246.71c-4.98-2.28-8.46-5.73-10.51-11.1c-1.32-3.46-4.29-6.35-6.72-9.33
		c-2.73-3.35-3.01-7.39-0.2-9.86c1.44-1.26,6.24-0.36,8.34,1.18c2.93,2.14,5.24,2.17,8.23,1.03c3.77-1.44,7.63-2.66,11.4-4.1
		c0.61-0.23,0.98-1.13,0.96-2.87c-3.85,1.05-7.78,1.88-11.54,3.2c-6.3,2.21-8.97,0.37-8.16-6.17c0.34-2.72,0.6-5.71,1.92-7.98
		c3.99-6.88,9.27-8.84,16.77-6.52c2.04,0.63,5.52,0.89,3.83,4.83c-0.11,0.25,0.01,0.88,0.11,0.89c5.91,1.11,3.26,7.66,6.59,10.41
		c0.46,0.38,0.99,1.19,0.89,1.68c-0.85,4.4-1.81,8.78-2.81,13.16c-0.44,1.93-0.78,3.93-1.61,5.7c-1.91,4.07-3.57,8.45-6.34,11.88
		c-2.1,2.6-5.12,4.07-3.66,8.27c0.27,0.76-2.22,3.43-2.51,3.29c-1.8-0.87-3.62-2.07-4.86-3.62
		C108.52,249.87,109.05,248.14,109.05,246.71z"/>
	<path class="st1" d="M257.62,376.82c3.92,5.69,3.26,12.87-0.81,16.44c-0.81,0.71-3.38,0.87-3.78,0.31
		c-1.14-1.58-2.73-4.33-2.09-5.45c3.2-5.64-0.25-7.14-4.31-9.77c-10.89-7.02-10.19-18.69-1.2-27.25c1.48-1.41,2.83-3.33,3.41-5.26
		c1.98-6.57,7.6-9,13.39-5.41c2.82,1.75,6.16,2.68,7.42,6.65c0.44,1.37,3.8,2.01,5.93,2.59c1.94,0.53,5.4-0.07,5.79,0.86
		c1.39,3.22,2.7,7.02,2.25,10.36c-0.68,5.09-10.33,10.69-15.38,11.3C264.71,372.62,261.44,375.07,257.62,376.82z"/>
	<path class="st1" d="M207.45,387.68c-2.14,0.82-4.5,2.66-6.25,2.18c-2.26-0.61-4.02-3.06-6-4.71c1.42-1.52,2.7-4.18,4.27-4.36
		c4.67-0.54,4.79-2.62,3.83-6.43c-1.23-4.85,3.57-6.94,5.71-10.2c1.93-2.94,5.13-5.05,7.01-8.01c3.53-5.55,7.02-5.69,11-0.4
		c2.82,3.75,5.98,7.39,9.54,10.42c7.67,6.53,6.9,13.83-1.56,22.58C228.69,395.29,212.15,394.36,207.45,387.68z"/>
	<path class="st1" d="M250.75,273.23c2.1,3.85,5.25,7.43,0.56,10.38c-1.38,0.86-4.83,0.53-5.91-0.61c-3.9-4.12-0.95-7.54,1.07-9.48
		c-0.31-5.09-0.46-9.05-0.83-12.98c-0.14-1.41-1.18-2.77-1.18-4.15c0.01-2.78-0.57-6.85,0.95-8.06c2.56-2.03,7.77-4.13,9.73-2.87
		c6.55,4.19,12.75,9.33,17.92,15.14c4.28,4.82,0.54,12.98-5.81,14.44c-1.29,0.3-3.47,0.2-4.1-0.61
		C259.53,269.77,255.5,272.04,250.75,273.23z"/>
	<path class="st1" d="M119.07,138.57c4.44,1.64,7.59,2.9,10.8,3.93c0.82,0.26,2.08,0.12,2.78-0.35c3.56-2.42,5.84,0.11,8.24,1.99
		c2.73,2.14,1.12,4.31,0.01,6.59c-0.5,1.03-0.93,2.87-0.39,3.52c3.23,3.87,0.36,4.67-2.42,6.39c-2.05,1.26-4.44,3.78-4.61,5.89
		c-0.35,4.55-4.02,6.17-6.61,6.77c-2.66,0.61-6.5-1.09-8.87-2.97c-1.69-1.34-2.51-4.66-2.48-7.08c0.05-5.03,0.8-10.07,1.47-15.08
		C117.37,145.38,118.17,142.63,119.07,138.57z"/>
	<path class="st1" d="M321.42,162.18c-4.73,0.28-10.57-3.1-12.59-7.28c-3.01-6.22-2.59-9.96,1.63-14.63
		c3.17-3.51,14.43-3.02,17.97,0.85c1.44,1.57,3.04,3.15,3.97,5.02C337.36,156.13,333.65,161.47,321.42,162.18z"/>
	<path class="st1" d="M221.45,344.81c-4.05-0.12-12.68-6.39-12.59-9.16c0.13-4.03,7.62-8.6,14.29-8.72
		c2.12-0.04,5.93,5.78,5.74,8.76C228.49,341.97,226.06,344.94,221.45,344.81z"/>
	<path class="st1" d="M162.65,176.18c-5.27-0.01-9.6-3.99-9.55-8.77c0.04-3.33,4.44-7.44,8.04-7.51c5.31-0.1,8.93,3.35,8.92,8.48
		C170.05,173.67,167.67,176.18,162.65,176.18z"/>
	<path class="st1" d="M340.23,303.64c-1.73-1.52-3.54-2.96-5.17-4.58c-1.1-1.09-2.82-2.54-2.69-3.64c0.16-1.34,1.86-2.61,3.1-3.67
		c0.97-0.83,2.34-1.18,3.37-1.95c3.16-2.35,6.53-0.75,7.69,1.48c1.46,2.79,4.6,6.51,1.04,9.87c-2,1.89-4.82,2.91-7.26,4.32
		C340.28,304.86,340.25,304.25,340.23,303.64z"/>
	<path class="st1" d="M112.54,277.61c-3.48-0.1-6.47-3.36-5.79-7.18c0.58-3.29,1.44-6.96,6.29-6.69c4.49,0.25,9.26,3.2,9.21,5.96
		C122.19,272.69,116.03,277.71,112.54,277.61z"/>
	<path class="st1" d="M334.04,326.16c0.11-3.31,3.92-7.31,6.97-7.3c3.42,0.01,6.83,3.31,6.77,6.59c-0.06,3.74-3.71,7.19-7.42,7.02
		C336.68,332.3,333.93,329.55,334.04,326.16z"/>
	<path class="st1" d="M350.22,266.02c-2.13,4.85-3.47,8.76-5.62,12.16c-0.53,0.84-4.01,0.61-5.52-0.22c-1-0.55-1.5-3.19-1.18-4.68
		c0.54-2.49,2.3-4.73,2.82-7.22c0.6-2.91,1.98-5.02,4.81-4.29C347.34,262.24,348.68,264.54,350.22,266.02z"/>
	<path class="st1" d="M307.48,251.66c-3.59-3.32-3.56-3.31,0.87-7.29c1.09-0.98,1.72-2.9,2.9-3.26c2.12-0.64,4.85-1.18,6.65-0.33
		c1.59,0.75,3.58,4.2,3.06,5.13c-1.17,2.06-3.62,3.71-5.91,4.72C313.06,251.52,310.58,251.3,307.48,251.66z"/>
	<path class="st1" d="M364.76,246.88c2.01-1.97,3.71-4.71,6.13-5.71c2.5-1.04,7.52,3.81,6.51,6.42c-0.93,2.4-3.74,5.02-6.19,5.63
		C368.09,253.98,365.63,251.7,364.76,246.88z"/>
	<path class="st1" d="M294.64,114.44c2.5,3.96,5.12,6.35,5.16,8.77c0.03,1.87-2.87,4.71-5.04,5.47c-2.88,1-7.45-3.82-6.51-6.98
		C288.92,119.43,291.59,117.76,294.64,114.44z"/>
	<path class="st1" d="M181.69,322.92c1.74,2.27,4.48,4.35,4.94,6.85c0.54,2.94-2.02,5.24-5.39,4.89c-3.24-0.34-5.94-2.15-5.33-5.74
		c0.36-2.1,2.3-3.94,3.53-5.89C180.19,322.99,180.94,322.96,181.69,322.92z"/>
	<path class="st1" d="M198.46,178.71c1.53,2.11,3.71,4.06,4.32,6.41c0.31,1.19-1.98,4.08-3.56,4.51c-3.15,0.85-6.67-2.63-6.13-5.94
		c0.28-1.74,2.07-3.23,3.18-4.84C196.99,178.8,197.73,178.76,198.46,178.71z"/>
	<path class="st1" d="M159.62,136.19c1.8,0.6,2.86,0.67,2.97,1.04c1.02,3.31,2.1,6.63,2.57,10.03c0.09,0.64-2.42,2.09-3.84,2.28
		c-0.64,0.08-1.81-1.92-2.31-3.15c-0.67-1.65-1.34-3.5-1.23-5.22C157.88,139.47,158.96,137.84,159.62,136.19z"/>
	<path class="st1" d="M161.93,214.47c2.4,3.24,4.88,5.14,4.69,6.72c-0.21,1.69-3.01,4.33-4.54,4.24c-1.72-0.1-4.24-2.6-4.62-4.43
		C157.17,219.59,159.65,217.61,161.93,214.47z"/>
	<path class="st1" d="M110.61,312.88c-2.22-2.58-4.11-3.81-4.44-5.37c-0.62-2.91,1.28-5.06,4.21-4.54c1.62,0.29,3.92,2.34,4.06,3.78
		C114.59,308.27,112.53,310,110.61,312.88z"/>
	<path class="st1" d="M297.67,158.34c1.14,1.6,2.84,3.09,3.19,4.84c0.19,0.98-1.87,2.4-2.92,3.63c-1.33-1.14-3.44-2.09-3.77-3.47
		c-0.33-1.39,1.11-3.2,1.77-4.83C296.51,158.46,297.09,158.4,297.67,158.34z"/>
	<path class="st1" d="M135.12,198.09c1.68,2.17,3.04,3.47,3.68,5.05c0.18,0.44-2.24,2.67-2.63,2.47c-1.52-0.8-2.95-2.08-3.85-3.53
		C132.07,201.66,133.68,200.08,135.12,198.09z"/>
	<path class="st1" d="M261.85,136.84c-0.75,3.47-2.61,4.47-5.37,2.72c-0.64-0.41-1.02-2.47-0.57-3.14
		C258.12,133.11,259.96,135.37,261.85,136.84z"/>
	<path d="M390.55,239.82c0,20.54,0.08,41.08-0.03,61.61c-0.09,17.04-7.46,30.21-22.14,38.84c-35.25,20.71-70.56,41.32-106.01,61.7
		c-14.47,8.32-29.64,8.59-44.15,0.28c-35.95-20.58-71.76-41.4-107.41-62.49c-14.17-8.38-21.27-21.48-21.32-37.98
		c-0.12-41.18-0.09-82.37-0.01-123.55c0.03-17.05,7.46-30.22,22.13-38.84c33.94-19.95,68.09-39.55,102.03-59.51
		c9.18-5.4,18.64-8.83,29.42-8.12c7.62,0.5,14.5,3.03,21.02,6.83c34.3,19.99,68.6,39.99,102.92,59.93
		c15.76,9.16,23.63,22.72,23.54,41c-0.1,20.11-0.02,40.21-0.02,60.32C390.54,239.82,390.55,239.82,390.55,239.82z M240.12,85.42
		c-5.67-0.19-10.8,1.34-15.55,4.1C189.78,109.75,155,130,120.23,150.25c-6.45,3.76-6.37,8.94,0.12,12.71
		c34.04,19.8,68.13,39.52,102.09,59.45c11.73,6.88,23.07,7.05,34.83,0.15c34.16-20.02,68.42-39.86,102.64-59.77
		c6.1-3.55,6.19-8.89,0.15-12.4c-34.87-20.3-69.75-40.58-104.63-60.85C250.68,86.77,245.57,85.23,240.12,85.42z M246.84,314.89
		c0,21.29,0.03,42.59-0.03,63.88c-0.01,3.84,0.95,7.01,4.46,9.05c3.46,2.01,6.56,0.99,9.72-0.87c12.28-7.21,24.6-14.34,36.91-21.51
		c21.07-12.27,42.14-24.52,63.2-36.81c9.66-5.64,15.53-14.08,15.61-25.25c0.3-39.88,0.13-79.77,0.11-119.66
		c0-4.51-2.95-8.29-7.23-8.49c-2.29-0.11-4.9,0.81-6.94,1.99c-36.6,21.18-73.11,42.52-109.72,63.68c-4.37,2.53-6.18,5.78-6.15,10.75
		C246.92,272.73,246.85,293.81,246.84,314.89z M233.16,314.95c0-20.86-0.12-41.72,0.08-62.58c0.05-5.5-1.83-9.04-6.66-11.79
		c-19.5-11.1-38.84-22.48-58.24-33.75c-17.16-9.98-34.33-19.92-51.45-29.97c-3.51-2.06-6.83-2.55-10.27-0.12
		c-2.85,2.01-3.51,4.9-3.5,8.23c0.05,38.7,0.03,77.39,0.03,116.09c0,12.16,5.27,21.39,15.71,27.54
		c15.24,8.98,30.56,17.83,45.85,26.72c18.28,10.63,36.55,21.26,54.84,31.87c4.33,2.51,7.55,2.3,10.7-0.46
		c2.44-2.13,2.91-4.88,2.91-7.9C233.15,357.53,233.16,336.24,233.16,314.95z"/>
</g>
</svg>
