<?xml version="1.0" encoding="utf-8"?>
<!-- Generator: Adobe Illustrator 25.1.0, SVG Export Plug-In . SVG Version: 6.00 Build 0)  -->
<svg version="1.1" id="Layer_1" xmlns="http://www.w3.org/2000/svg" xmlns:xlink="http://www.w3.org/1999/xlink" x="0px" y="0px"
	 viewBox="0 0 120 160" style="enable-background:new 0 0 120 160;" xml:space="preserve">
<style type="text/css">
	.st0{fill:#FFFFFF;}
</style>
<image style="overflow:visible;" width="2066" height="2755" xlink:href="ambrosee.png"  transform="matrix(5.566312e-02 0 0 5.566312e-02 2.5 6.8538)">
</image>
<path class="st0" d="M118,119.8c-1.2,0.3-2.5,0.7-3.7,1c-0.4,0.1-1,1.6-0.8,2.4c0.2,0.7,0.5,1.4,0.8,2.3c-0.4-0.4-0.7-0.7-0.9-0.8
	c-0.4-0.1-1.1-0.2-1.2-0.1c-0.3,0.4-0.6,1.1-0.5,1.5c0.4,1.2,1.1,2.4,1.6,3.6c0.1,0.3,0.1,0.8,0,1.2c-0.2,1-0.5,1.9-0.5,2.9
	c0,0.5,0.3,1.1,0.7,1.5c0.7,0.9,1.6,1.8,2.2,2.8c-1.2-0.7-2.3-1.4-3.6-2.2c-0.3,0.8-0.7,1.6-1.1,2.5c0.7,0.5,0.9,1.8,2,1.1
	c0.2,0.8,0.2,1.7,0.5,2.5c0.4,1.4,0.5,2.6-0.9,3.8c0.7,0.1,1.2,0.2,2,0.3c-0.6,0.1-0.8,0.3-1.2,0.3c-0.8,0.1-1.5,0.2-2,0.9
	c-0.3,0.4-0.8,0.7-1.2,0.8c-0.8,0.1-1,0.7-1.1,1.4c-0.2,1.1-0.6,2.3-0.9,3.6c1.2-0.1,2.3-0.1,3.5-0.1c-0.7,0.3-1.2,0.6-1.8,0.9
	c-0.7,0.3-1.5,0.5-1.9,1c-1.7,2-3.9,2.2-6.3,1.9c-0.5-0.1-1-0.1-1.5-0.2c-0.1,0.1-0.2,0.2-0.2,0.3c0.6,1,1.2,2,1.8,3
	c-0.1,0.1-0.1,0.1-0.2,0.1c-0.9-1.2-1.8-2.4-2.8-3.6c-0.2-0.2-0.2-0.5-0.4-0.6c-1.1-0.5-2.1-1.1-3.2-1.5c-0.3-0.1-0.9,0.1-1.3,0.2
	c-1.2,0.6-2.4,1.4-3.7,2.1c-0.6,0.3-1.2,0.5-1.9,0.6c0.7-0.4,1.3-0.9,2-1.3c0-0.1,0-0.2,0-0.3c-0.5-0.1-0.9-0.3-1.4-0.4
	c-2.6-0.4-5-1.2-7.2-2.7c-0.5-0.3-0.8-0.3-1.3,0c-0.7,0.5-1.5,0.9-2.3,1.3c-0.8,0.5-1.6,0.8-2.6,0.5c-0.7-0.2-1.4,0.1-2.2,0.3
	c0.2,0.8,0.3,1.6,0.5,2.4c-0.7-0.8-1.3-1.5-1.9-2.1c-0.6-0.5-1.2-0.5-1.9-0.2c-1.2,0.4-2.4,0.7-3.6,1.1c0-0.1-0.1-0.1-0.1-0.2
	c0.8-0.4,1.6-0.9,2.5-1.4c-1.1-0.7-2-1.2-2.9-1.8c-0.2-0.1-0.6-0.1-0.8,0c-0.3,0.1-0.6,0.4-0.9,0.6c-1,0.7-1.9,1.2-3.3,0.8
	c-2.3-0.7-3.8,0.2-4.9,2.4c-0.4,0.8-1.1,1.5-1.6,2.2c-0.1-0.1-0.2-0.1-0.2-0.2c0.3-0.7,0.7-1.3,1-2c0.3-0.7,0.4-1.4,0.6-2.2
	c-0.8-0.4-1.6-0.8-2.5-1.1c-0.2-0.1-0.6,0-0.8,0.2c-1.5,1.1-3,2.2-4.8,2.6c-0.5,0.1-0.5,0.2-0.6,1.5c-0.6-0.5-1.3-1.1-2-1.6
	c-0.8-0.5-1.5-0.3-2.2,0.4c-0.3,0.3-0.7,0.4-1.1,0.6c-0.7,0.2-1.3,0.5-2,0.7c-0.3,0.1-0.7,0.2-1.2,0.4c1.5-1.1,2.8-2.1,4.3-3.2
	c-0.5-0.4-0.9-0.7-1.2-1c-0.4-0.4-0.7-0.4-1.1,0c-0.6,0.6-1.3,1-2.2,1.2c-1.6,0.5-3.1,1.4-3.8,3.2c0-0.5-0.1-1.1-0.1-1.6
	c-1.3-0.1-2.5-0.2-3.8-0.3c-0.3,0-0.7-0.3-0.9-0.6c-0.7-0.8-1.4-1.6-2.1-2.4c-0.9,0.3-1.2,0.8-1.3,1.7c0,1.3,0,2.7-0.8,3.7
	c-0.1-1.1-0.2-2.4-0.4-3.8c-0.8,0.4-1.5,0.6-2.1,0.9c-0.6,0.3-1.1,0.3-1.8,0.1c-1.4-0.5-2.8-0.8-4.2-1.3c-0.7-0.2-1.2-0.8-1.9-1.2
	c-0.3-0.2-0.7-0.4-1-0.3c-0.7,0.1-1.3,0.4-1.9,0.7c-1.2,0.6-2.3,0.3-3.2-0.7c-0.8-0.9-1.7-1.7-2.6-2.5c-0.2-0.2-0.5-0.2-0.8-0.3
	c-0.5-0.1-1-0.2-1.5-0.5c0.9-0.1,1.8-0.3,2.7-0.4c0.2-0.9,0.4-1.7,0.5-2.6c0-0.3-0.1-0.6-0.2-0.9c-0.6-1-1-2-0.8-3.1
	c0-0.3-0.2-0.7-0.5-0.9c-0.2-0.1-0.7,0-0.9,0.1c-0.5,0.3-0.9,0.8-1.3,1.2c-0.1-0.1-0.1-0.1-0.2-0.2c0.5-0.7,0.9-1.4,1.5-2
	c1.4-1.5,1.9-3.4,2.5-5.2c0.1-0.4-0.3-1.2-0.6-1.6c-0.7-0.7-1.5-1.2-2.3-1.8c-0.4-0.3-0.7-0.7-1.1-1.2c1.7,0.9,3.3,1.8,5.1,2.7
	c0.2-0.4,0.6-0.9,0.8-1.2c-1.1-2-2.1-3.8-3.1-5.6c-0.3-0.6-0.8-0.8-1.5-0.7c-0.8,0.2-1.6,0.3-2.4,0.5c0-0.1-0.1-0.2-0.1-0.3
	c1.2-0.4,2.5-0.7,3.7-1.1c0.5-0.1,1-1.5,0.8-2.3c-0.2-0.7-0.5-1.4-0.8-2.4c0.4,0.4,0.6,0.7,0.9,0.8c0.4,0.1,1,0.3,1.2,0.1
	c0.4-0.4,0.9-0.9,0.5-1.6c-0.6-1.2-1.2-2.3-1.7-3.6c-0.1-0.3-0.1-0.7,0-1.1c0.2-1,0.4-2,0.5-3c0-0.4-0.2-0.9-0.5-1.2
	c-0.4-0.6-1-1.1-1.5-1.7c-0.4-0.4-0.7-0.9-1.2-1.5c1.4,0.8,2.5,1.5,3.8,2.3c0.3-0.8,0.7-1.6,1.1-2.4c-1.2-1.4-1.2-1.4-2.3-1
	c0.2-0.6,0.4-1.1,0.5-1.6c0.2-1.2,0.4-2.4,0.4-3.7c0-0.2-0.5-0.6-0.8-0.7c-1.8-0.5-3.5-0.9-5.1-1.3c0.1,0,0.5-0.2,0.9-0.2
	c0.7,0,1.4,0,2.2,0c1.4,0.1,1.8-0.4,1.3-1.8c-0.1-0.2-0.2-0.5-0.3-0.7c-0.3-1.1-0.7-2.2,0.2-3.2c0,0,0-0.1,0.1-0.1
	c1-2.2,1-2.4-0.9-4.1c0.6,0,1,0.1,1.5,0c1.5-0.4,1.4-1.9,2.1-2.9c0.1-0.1-0.2-0.4-0.3-0.6c-0.8-1-1.8-1.5-2.9-2
	c-1.4-0.6-2.7-1.6-4-2.4c0-0.1,0.1-0.2,0.1-0.3c0.7,0.3,1.5,0.7,2.2,1c0.5,0.2,1,0.5,1.5,0.7C5.6,83,6,82.7,5.7,82.1
	c-0.3-0.6-0.7-1.1-1.1-1.5c-0.3-0.3-0.7-0.6-1-1c0.3,0.1,0.5,0.2,1,0.3c0-0.4,0-0.8,0-1.2c-0.2-1.1-0.2-2,0.9-2.7c0,0,0-0.1,0.1-0.1
	c1.2-1.2,1.9-2.5,0.7-4.2c-0.8-1.1-0.9-2.3-0.4-3.7c0.7-1.8,0.3-3.4-1.2-4.7c-0.9-0.9-1.6-2-2.3-3c0.8,0.7,1.5,1.4,2.4,2
	C5.4,63,5.6,62.9,6,61.8c0.3-0.9,0.7-1.8,1-2.8c0-0.1,0.2-0.2,0.1-0.3c-0.6-1.1-1.2-2.3-1.8-3.4c0-0.1-0.6,0.1-0.8,0.2
	c-0.4,0.3-0.8,0.7-1.1,1c-0.1,0-0.1-0.1-0.2-0.2c0.3-0.5,0.6-1.1,1.1-1.5c1.5-1.5,2.1-3.4,2.8-5.2c0.3-0.9,0.1-1.5-0.7-2
	c-1.1-0.8-2.1-1.7-3-2.7c1.6,0.8,3.2,1.7,4.8,2.5c0.1-0.2,0.3-0.6,0.6-0.9c0.3-0.4,0.2-0.7-0.1-1.1c-1-1.5-1.9-3-2.7-4.5
	C5.4,40.1,4.9,39.8,4,40c-0.6,0.2-1.2,0.2-1.9,0.3c0-0.1-0.1-0.2-0.1-0.4c1.1-0.3,2.4-0.4,3.4-1c0.5-0.3,0.8-1.3,0.9-2
	c0.1-0.4-0.3-0.9-0.4-1.4c-0.1-0.3-0.2-0.7-0.4-1.2c0.4,0.4,0.6,0.7,0.9,0.8c0.4,0.1,1.1,0.2,1.2,0c0.3-0.4,0.6-1.1,0.4-1.5
	c-0.4-1.2-1.1-2.3-1.6-3.5c-0.2-0.4-0.1-0.9,0-1.3C6.6,28,6.9,27,7,26.1c0-0.4-0.2-0.9-0.5-1.2C6,24.2,5.4,23.6,4.9,23
	c-0.3-0.4-0.6-0.8-1-1.3c1.4,0.8,2.5,1.5,3.8,2.3c0.3-0.8,0.8-1.5,0.9-2.2c0.1-0.4-0.3-0.9-0.7-1.2c-0.3-0.2-0.8-0.2-1.3-0.3
	c0.1-1.4,0.1-2.9,0.2-4.5c0-0.7-0.3-1.1-0.9-1.4c-0.9-0.5-1.8-1.1-2.6-1.8c1.2,1,2.6,0.6,4,0.6c0.9-1.8,1.9-3.5,0.5-5.6
	c0.1,0,0.2-0.1,0.3-0.1c0.3,0.4,0.7,0.8,1,1.2C9.3,9,9.5,9.2,9.9,8.8c1.1-0.9,2.4-1.2,3.8-1.3c0.9-0.1,1.8-0.2,2.6-0.2
	c1.3,0,2.1-0.8,2.5-1.8c0.6-1.8,1-3.7,1.5-5.5c0,0.5,0.1,1.3,0.2,2c0,0.3-0.1,0.6-0.1,0.9c0,0.5,0.1,1,0.2,1.5
	c0.5-0.1,1-0.2,1.5-0.3c0.8-0.2,1.5-0.5,2.3-0.7c0.2,0,0.5,0.1,0.7,0.2C26,4,26.8,4.5,27.5,4.9c1,0.5,1.8,0.2,2.3-0.8
	c0.1-0.2,0.3-0.4,0.5-0.7c0,0.6-0.1,1,0,1.4c0.1,0.9,0.7,1.3,1.5,1.6c0.6,0.2,1.3,0.8,1.6,0.6c0.8-0.5,1.7-1.2,1.9-2
	c0.5-2,1.9-3.5,3.2-5c-0.1,0.3-0.2,0.6-0.3,0.9c-0.1,0.3-0.3,0.7-0.4,1s-0.4,0.6-0.5,1c-0.1,0.5-0.1,1.1-0.2,1.6
	C37.7,4.2,38.4,4,39,3.6c0.5-0.3,0.7-1,1.3-1.4c-0.1,0.3-0.2,0.5-0.3,1c0.4,0,0.8,0,1.2,0c1-0.1,2-0.2,2.7,0.9
	c0,0.1,0.1,0.1,0.2,0.1c1.2,1.2,2.5,1.8,4.2,0.7c1.1-0.8,2.3-0.9,3.7-0.4c1.8,0.6,3.3,0.3,4.7-1.2c0.9-1,2.1-1.7,3.3-2.7
	c-0.9,1-1.7,1.9-2.4,2.8c-0.7,0.8-0.5,1,0.4,1.4c1,0.3,1.9,0.7,2.9,1c0.1,0,0.1,0.1,0.2,0.1c1.2-0.6,2.3-1.1,3.5-1.7
	c0.1,0-0.1-0.6-0.2-0.8c-0.3-0.4-0.7-0.8-1-1.1c0.1-0.1,0.1-0.1,0.2-0.2c0.6,0.5,1.3,0.9,1.9,1.4c1.5,1.4,3.3,1.9,5.1,2.5
	c0.7,0.3,1.3-0.1,1.7-0.7c0.6-0.7,1.1-1.5,1.7-2.2c0.3-0.4,0.7-0.7,1.1-0.9c-0.8,1.6-1.6,3.1-2.5,4.8c0.4,0.2,0.9,0.5,1.2,0.8
	c2-1.1,3.8-2.1,5.7-3.2c0.6-0.3,0.7-0.9,0.5-1.5c-0.2-0.7-0.3-1.4-0.4-2.1c0.1,0,0.2-0.1,0.2-0.1c0.4,1.2,0.9,2.4,1.5,4
	c1.1,1,2.6,0.2,4.1-0.4c0,0.1,0.1,0.2,0.1,0.3c-0.2,0.2-0.6,0.2-0.6,0.4c-0.1,0.4-0.3,1.1-0.1,1.4c0.3,0.4,0.9,0.8,1.6,0.4
	c1.1-0.6,2.3-1.1,3.5-1.6c0.3-0.1,0.7-0.1,1.1,0c1,0.2,2,0.4,3,0.5c0.4,0,0.8-0.2,1.2-0.4c0.7-0.5,1.3-1.1,1.9-1.7
	c0.4-0.3,0.8-0.6,1.3-1c-0.8,1.3-1.5,2.5-2.2,3.8c0.8,0.3,1.5,0.7,2.2,0.9c0.8,0.2,1.6-1.1,1.3-1.9c0.8-0.2,1.7-0.3,2.5-0.5
	c0.8-0.2,1.5-0.3,2.3-0.4c0.9-0.1,1.7,0.1,2.3,0.9c0.8,1.1,1,1,2.1,0.2c0.4-0.3,0.9-0.6,1.4-0.7c-0.6,0.8-1.4,1.5-1.8,2.4
	c-0.2,0.5,0.2,1.2,0.3,1.9c0.9,0.1,1.9,0,2.7,0.2c0.8,0.2,1.5,0.8,2.1,1.5c0.5-0.1,0.9-0.2,1.4-0.3c0.1,0.1,0.2,0.2,0.2,0.3
	c-0.2,0.1-0.4,0.2-0.6,0.3c-1.3,1-0.9,2.4-0.5,3.5c0.3,0.9,0.3,1.6,0.2,2.5c-0.1,0.4,0.1,0.9,0.3,1.1c0.2,0.1,0.8-0.1,1.1-0.3
	c0.4-0.2,0.6-0.7,0.9-1c0.1,0.1,0.2,0.1,0.3,0.2c-0.4,0.5-0.6,1.2-1.1,1.6c-1.5,1.4-2,3.3-2.8,5.1c-0.4,0.9-0.1,1.6,0.7,2.1
	c1,0.8,2,1.6,3,2.3c-0.1,0.1-0.1,0.1-0.2,0.2c-1.5-0.8-3-1.6-4.6-2.4c0,0-0.1,0.2-0.3,0.4c-0.6,0.7-0.5,1.2,0.1,2
	c0.9,1.2,1.6,2.6,2.3,4c0.6,1.2,0.8,1.3,2.1,1c0.7-0.2,1.3-0.2,2.1-0.1c-1.2,0.5-2.5,0.9-4.1,1.5c-1,1.1-0.2,2.6,0.2,4.1
	c-0.2-0.2-0.4-0.5-0.7-0.6c-0.4-0.1-1.1-0.3-1.3-0.1c-0.3,0.4-0.6,1.1-0.4,1.5c0.4,1.2,1.1,2.3,1.6,3.5c0.2,0.4,0.1,0.8,0,1.3
	c-0.2,1-0.4,1.9-0.5,2.9c0,0.4,0.2,0.8,0.4,1.2c0.5,0.7,1.1,1.2,1.6,1.8c0.3,0.4,0.7,0.8,1.1,1.4c-1.3-0.8-2.5-1.5-3.8-2.2
	c-0.3,0.8-0.8,1.5-0.9,2.3c-0.1,0.4,0.5,1,0.9,1.3c0.2,0.2,0.8,0,1.3,0c-0.2,0.4-0.4,0.9-0.5,1.4c-0.2,1.2-0.3,2.4-0.4,3.7
	c0,0.2,0.4,0.6,0.7,0.7c1.8,0.5,3.6,1,5.6,1.5c-1.3,0-2.5,0.1-3.6,0c-1.1-0.1-1.5,0.3-1.2,1.4c0.1,0.3,0.2,0.5,0.3,0.8
	c0.4,1.2,0.7,2.2-0.1,3.5c-1.2,2-1,2.4,0.9,4.1c-0.5-0.1-0.9-0.2-1.3-0.1c-0.7,0.1-2.7,2.5-2.3,3c0.5,0.9,1.4,1.6,2.2,2.2
	c0.8,0.5,1.8,0.7,2.6,1.2c0.8,0.5,1.5,1.2,2.1,1.9c-0.6-0.3-1.3-0.6-1.9-0.9c-0.5-0.2-0.9-0.5-1.4-0.7c-0.3-0.1-0.6,0-0.9,0
	c0,0.3-0.1,0.7,0.1,0.9c0.4,0.5,0.8,1,1.2,1.4c0.3,0.3,0.6,0.5,1.1,0.9c-0.6-0.1-0.8-0.2-1.3-0.3c0,0.6,0.1,1,0.1,1.5
	c0.1,0.9,0,1.6-0.8,2.3c-0.6,0.6-1.1,1.3-1.5,2c-0.1,0.2-0.1,0.6,0,0.9c0.2,0.6,0.5,1.1,0.8,1.6c0.6,1.2,0.8,2.3,0.3,3.6
	c-0.6,1.8-0.3,3.4,1.2,4.8c0.9,0.8,1.6,2,2.2,3.1c-0.8-0.7-1.5-1.5-2.4-2.2c-0.8-0.7-1-0.5-1.4,0.4c-0.3,1-0.7,1.9-1,2.9
	c0,0,0,0.1,0,0.1c-0.2,0.5,1.2,3.4,1.7,3.5c0.3,0,0.7-0.1,0.9-0.2c0.4-0.3,0.7-0.8,1.1-1.1c0.1,0.1,0.2,0.1,0.3,0.2
	c-0.3,0.5-0.6,1.2-1.1,1.6c-1.5,1.4-2.1,3.4-2.8,5.2c-0.4,0.9-0.1,1.6,0.7,2.1c1.1,0.8,2.2,1.8,3.2,2.8c-1.6-0.9-3.2-1.7-4.9-2.7
	c-0.2,0.4-0.6,0.9-0.8,1.2c1.1,2,2.1,3.8,3.1,5.6c0.3,0.6,0.8,0.8,1.5,0.7c0.8-0.2,1.6-0.3,2.4-0.5C118,119.6,118,119.7,118,119.8z
	 M15.6,42c1-1.4,2-2.7,3.1-4.2c-0.1,0.5-0.2,0.8-0.3,1.1c-0.2,0.6-0.6,1.1-0.6,1.7c0,0.8-0.4,1.3-0.9,1.8c-0.3,0.4-0.5,1.2-0.3,1.6
	c0.4,0.9,1.1,1.7,1.7,2.4c-0.3,0.2-1.2-0.5-1.5,0.5c-0.5,1.9-1.5,3.4-2.7,4.9c-0.1,0.2-0.2,0.6-0.1,0.8c0.4,0.9,0.8,1.7,1.2,2.6
	c1.4-0.5,2.8-1,4.1-1.5c-0.4,1-1.4,1.4-2.4,1.9C15.7,56,15,56.8,14.9,58c-0.1,0.8-0.3,1.7,0,2.3c0.8,1.5-0.2,2.4-0.9,3.5
	c-0.2,0.4-0.5,0.8-0.7,1.1c0.7,1.1,1.3,2.2,2,3.4c0.5-0.9,0.9-1.7,1.4-2.6c-0.1,1.2-0.3,2.4-0.8,3.6c-0.4,1-0.3,1.8,0.4,2.5
	c0.5,0.5,1.2,1,1.9,1.6c-0.9-0.2-1.6-0.3-2.5-0.5c-0.1,0.7-0.4,1.5-0.2,2.1c0.4,1.2-0.1,2-0.6,2.9c-0.4,0.7-0.9,1.4-1.3,2.2
	c-0.1,0.3-0.1,0.7,0,0.9c1.6,2.4,2.4,5.1,2.9,7.9c0,0.3,0.2,0.6,0.4,1.2c0.6-0.9,1-1.6,1.5-2.3c-0.1,0.7-0.2,1.3-0.6,1.9
	c-0.7,1.3-1.4,2.6-2.2,3.8c-0.3,0.6-0.3,1,0,1.6c0.4,0.7,0.7,1.6,1.1,2.3c0.2,0.3,0.5,0.6,0.8,0.9c1.1,0.9,2.3,1.8,3.5,2.7
	c-0.1,0.1-0.1,0.1-0.2,0.2c-1-0.6-2-1.2-3.2-1.9c0,0.6,0,0.9,0,1.1c0.2,1.4,0.4,2.9,0.5,4.3c0.1,1-0.1,1.9-0.9,2.7
	c-0.7,0.7-1.1,1.8-1.8,2.9c1.6,0.2,2.8,0.3,3.9,0.4c-1,0.7-2.2,0.8-3.4,0.8c-0.9,0-1.6,0.2-1.9,1.3c0.7,0.6,1.4,1.4,2.1,1.9
	c0.6,0.4,0.9,1,0.9,1.7c0.1,1.1,0.1,2.2,0.2,3.4c0.5,0,1,0,1.6,0c-1.7,0.7-2.6,2.1-3.1,3.6c-0.3,1.1-0.9,2-1.6,2.8
	c0,0,0,0.1-0.1,0.2c0.4,0.5,0.8,1,1.3,1.6c1.1-1.4,2-2.8,3.2-4.2c-0.1,0.5-0.2,0.9-0.4,1.2c-0.2,0.5-0.6,1-0.6,1.6
	c0,0.8-0.4,1.3-0.9,1.8c-0.3,0.4-0.5,1.2-0.3,1.6c0.4,0.9,1.1,1.6,1.6,2.4c-0.4,0.1-1.2-0.4-1.4,0.5c-0.5,1.8-1.5,3.3-2.6,4.8
	c-0.2,0.2-0.3,0.6-0.2,0.9c0.3,0.9,0.8,1.7,1.2,2.6c1.4-0.5,2.8-1,4.2-1.5c-0.6,0.6-1.2,1.2-1.9,1.6c-0.5,0.3-1.1,0.5-1.6,0.8
	c-0.7,0.4-0.8,1.1-0.6,1.7c0.2,0.5,0.7,1,1.2,1.1c1.5,0.2,2.9,0.3,4.4,0.4c-0.3,0.8,0.5,2.1,1.2,1.9c0.8-0.2,1.5-0.6,2.3-0.9
	c-0.8-1.3-1.4-2.4-2.3-3.8c0.6,0.5,1,0.8,1.4,1.1c0.6,0.5,1.1,1.1,1.8,1.6c0.3,0.3,0.8,0.5,1.2,0.4c1-0.1,1.9-0.4,2.9-0.5
	c0.4-0.1,0.8-0.1,1.2,0c1.1,0.5,2.3,1,3.4,1.6c0.8,0.4,1.3,0,1.7-0.5c0.2-0.3-0.1-0.9-0.2-1.4c0-0.2-0.3-0.3-0.6-0.7
	c0.6,0.2,0.9,0.3,1.2,0.4c0.5,0.1,1,0.5,1.4,0.4c0.7-0.1,1.7-0.4,2-0.9c0.6-1.1,0.7-2.4,1-3.6c0.1,0,0.2,0.1,0.3,0.1
	c-0.1,0.7-0.2,1.4-0.4,2.1c-0.2,0.9,0.1,1.4,0.9,1.9c1.5,0.8,3,1.6,4.4,2.6c0.5,0.4,0.9,0.5,1.4,0.1c0.2-0.2,0.5-0.4,0.7-0.5
	c-0.8-1.6-1.7-3.2-2.5-4.7c0.1-0.1,0.1-0.1,0.2-0.1c0.8,1,1.7,2.1,2.5,3.1c0.5,0.7,1.1,1,2,0.7c1.8-0.7,3.7-1.2,5.1-2.6
	c0.5-0.5,1.2-0.9,1.9-1.3c0.1,0.1,0.1,0.2,0.2,0.2c-0.3,0.3-0.7,0.6-0.9,0.9c-0.8,0.9-0.7,1.3,0.4,1.9c1.4,0.7,2.8,1.4,4.3,0.3
	c0.3-0.2,0.9-0.3,1.3-0.4c0.3-0.1,0.6-0.3,1.2-0.6c-1.1-1.1-2-2.1-2.9-3.1c0.1-0.1,0.1-0.1,0.2-0.2c1,0.8,2.1,1.4,2.9,2.4
	c1.4,1.5,3,1.9,4.8,1.2c1.4-0.5,2.7-0.3,3.7,0.4c1.7,1.2,2.9,0.5,4.2-0.7c0,0,0.1,0,0.1-0.1c0.7-1,1.7-1,2.8-0.9c0.3,0,0.7,0,1.2,0
	c-0.2-0.4-0.2-0.7-0.3-0.9c0.5,0.4,0.8,0.9,1.2,1.2c0.6,0.4,1.4,1,1.9,0.8c0.8-0.3,0-1.1-0.2-1.6c-0.1-0.3-0.3-0.6-0.5-1
	c-0.1-0.3-0.3-0.6-0.4-0.9c-0.1-0.3-0.2-0.6-0.3-0.9c1.3,1.6,2.8,2.9,3.1,5c0,0.1,0.1,0.2,0.1,0.3c0.6,0.6,1.1,1.3,1.8,1.7
	c0.3,0.2,1-0.4,1.6-0.6c0.7-0.3,1.5-0.6,1.6-1.5c0-0.4,0-0.8,0-1.4c0.4,0.5,0.6,0.9,0.9,1.1c0.4,0.2,0.9,0.6,1.3,0.4
	c1-0.4,1.9-0.9,2.8-1.4c0.2-0.1,0.5-0.3,0.8-0.2c0.7,0.1,1.4,0.4,2.2,0.6c0.5,0.1,1.1,0.3,1.6,0.4c0.1-0.6,0.2-1.2,0.2-1.8
	c0-0.5-0.1-1.1,0-1.6c0-0.4,0.2-0.9,0.2-1.2c0.3,1.4,0.5,2.9,1,4.3c0.6,2.2,2,3.1,4.6,3c-0.1-0.6-0.2-1.2-0.3-1.8
	c-0.3-0.9-0.7-1.8-1-2.7c-0.4-1.1-0.6-2.4-1-3.5c-0.2-0.6-0.2-1.1,0.1-1.7c0.3-0.6,0.6-1.3,0.9-2.1c-1.4-0.2-2.6-0.3-3.8-0.4
	c1-0.6,2.3-0.8,3.6-0.8c0.9,0,1.5-0.3,1.8-1.3c-0.8-0.7-1.6-1.4-2.3-2.1c-0.3-0.3-0.6-0.7-0.7-1.1c-0.2-1.2-0.2-2.5-0.3-3.8
	c-0.5,0-1-0.1-1.6-0.1c1.7-0.7,2.6-2.1,3-3.5c0.4-1.1,0.9-2,1.6-2.9c0,0,0-0.1,0-0.2c-0.4-0.5-0.8-1-1.3-1.6c-1.1,1.4-2,2.7-3,4
	c0.2-0.9,0.7-1.7,0.8-2.6c0.1-0.7,0.4-1.2,0.8-1.8c0.3-0.4,0.5-1.2,0.3-1.6c-0.4-0.9-1.1-1.6-1.6-2.4c0.3-0.2,1.2,0.4,1.4-0.6
	c0.4-1.8,1.5-3.3,2.6-4.8c0.2-0.2,0.3-0.6,0.2-0.8c-0.4-0.9-0.8-1.8-1.2-2.7c-1.4,0.5-2.8,1-4,1.5c0.3-0.7,0.7-1,2.1-1.7
	c2.1-1,3-3.5,2.1-5.7c-0.1-0.3-0.1-0.8,0.1-1.1c0.5-0.9,1.1-1.8,1.6-2.6c-0.7-1.2-1.3-2.2-2-3.4c-0.5,0.9-0.9,1.8-1.4,2.6
	c0.1-1.3,0.4-2.5,0.8-3.7c0.3-0.8,0.3-1.5-0.3-2.2c-0.6-0.6-1.2-1.1-2-1.8c0.8,0.2,1.5,0.3,2.4,0.5c0-0.9,0.1-1.8,0.1-2.7
	c0-0.4,0-0.9,0.1-1.3c0.6-1.1,1.2-2.2,1.8-3.3c0.1-0.3,0.2-0.7,0-0.9c-1.6-2.4-2.4-5.1-2.9-7.9c-0.1-0.3-0.2-0.6-0.4-1.2
	c-0.6,0.9-1,1.6-1.4,2.3c0.1-0.7,0.2-1.3,0.6-1.9c0.7-1.3,1.4-2.5,2.1-3.8c0.3-0.6,0.4-1.2,0-1.8c-0.4-0.7-0.7-1.5-1-2.2
	c-0.2-0.3-0.5-0.6-0.8-0.9c-1.2-0.9-2.3-1.8-3.5-2.7c0.1-0.1,0.1-0.1,0.1-0.2c1,0.6,2,1.2,3.2,1.9c0-0.6,0-0.9,0-1.1
	c-0.2-1.4-0.3-2.8-0.5-4.2c-0.1-1.1,0.2-2,1-2.8c0.7-0.7,1.1-1.8,1.8-2.9c-1.6-0.2-2.8-0.3-4-0.4c1-0.7,2.4-0.8,3.7-0.8
	c0.9,0,1.4-0.4,1.7-1.3c-0.8-0.7-1.6-1.4-2.3-2.1c-0.3-0.3-0.6-0.7-0.7-1.1c-0.2-1.2-0.2-2.5-0.3-3.7c-0.5,0-1-0.1-1.6-0.1
	c1.7-0.6,2.4-1.9,3-3.3c0.5-1.2,0.8-2.3,1.9-3.2c-0.5-0.6-0.9-1.1-1.4-1.8c-1.1,1.5-2.1,2.8-3.2,4.3c0.2-0.5,0.3-0.9,0.4-1.3
	c0.2-0.6,0.4-1.2,0.7-1.8c0.2-0.4,0.3-0.9,0.6-1.2c0.7-0.7,0.9-1.5,0.4-2.3c-0.4-0.7-1.1-1.4-1.5-1.8c0.4-0.2,1.2-0.3,1.3-0.7
	c0.6-1.9,1.6-3.4,2.8-4.9c0.1-0.2,0.2-0.6,0.1-0.8c-0.3-0.8-0.7-1.7-1.2-2.6c-1.4,0.5-2.8,1-4.1,1.5c0.4-1,1.6-1.4,2.5-2
	c0.6-0.4,1.2-0.8,1.6-1.4c0.6-0.9,0.9-1.9,1.4-3c-0.3-0.1-0.8-0.2-1.2-0.1c-0.7,0.2-1.4,0.5-2.1,0.7c-2.3,0.8-4.5,2-6.9,0.3
	c-0.1,0-0.2,0-0.4,0c-0.1,1.2-0.3,2.4-0.4,3.6c-0.4-1.2-0.7-2.4-0.8-3.7c-0.1-0.9-0.3-1.4-1.3-1.8c-0.7,0.8-1.4,1.6-2.1,2.3
	c-0.3,0.3-0.7,0.6-1,0.6c-1.2,0.2-2.5,0.2-3.8,0.3c0,0.5-0.1,1.1-0.2,1.8c-0.8-2.2-2.4-3-4.3-3.6c-0.4-0.1-0.8-0.2-1-0.5
	c-1.2-1-1.2-1.1-2.4-0.1c-0.1,0.1-0.2,0.2-0.5,0.4c1.4,1,2.7,2,4.3,3.2c-0.6-0.2-0.9-0.3-1.3-0.4c-0.6-0.2-1.2-0.4-1.8-0.7
	c-0.4-0.2-1-0.3-1.3-0.6c-0.6-0.6-1.3-0.9-2-0.4c-0.8,0.5-1.5,1.1-2.2,1.6c-0.2-0.4,0.5-1.2-0.5-1.5C71,15,69.5,13.9,68,12.8
	c-0.2-0.1-0.6-0.2-0.8-0.1c-0.9,0.4-1.7,0.8-2.5,1.1c0.2,0.8,0.3,1.5,0.6,2.2c0.3,0.7,0.7,1.3,1,2c-1-0.4-1.5-1.3-2-2.2
	c-1-2.1-3.5-3-5.7-2.1c-0.3,0.1-0.9,0.1-1.2-0.1c-0.9-0.5-1.8-1.1-2.5-1.6c-1.2,0.7-2.2,1.3-3.4,2c0.9,0.5,1.7,0.9,2.5,1.4
	c-1.3-0.1-2.5-0.4-3.7-0.9c-0.8-0.3-1.4-0.3-2,0.3c-0.6,0.6-1.2,1.3-1.9,2.1c0.2-0.8,0.3-1.5,0.5-2.4c-0.8-0.1-1.6-0.4-2.2-0.2
	c-1,0.3-1.7,0-2.5-0.5c-0.8-0.5-1.6-0.9-2.4-1.4c-0.4-0.3-0.8-0.3-1.2,0c-2.2,1.5-4.6,2.3-7.2,2.7c-0.5,0.1-1,0.2-1.8,0.4
	c0.8,0.6,1.4,1,2,1.4c0,0.1-0.1,0.1-0.1,0.2c-0.5-0.2-1-0.4-1.5-0.6c-1.3-0.7-2.5-1.4-3.8-2.1c-0.6-0.4-1.2-0.4-1.8,0
	c-0.6,0.4-1.4,0.6-2.1,1c-0.4,0.2-0.7,0.5-1,0.9c-0.9,1.1-1.8,2.3-2.7,3.4c-0.1,0-0.1-0.1-0.2-0.2c0.6-1,1.2-2,1.8-3
	c-0.1-0.1-0.2-0.2-0.2-0.3c-0.9,0.1-1.7,0.2-2.6,0.4c-1,0.1-1.6,0.7-1.2,1.6c0.7,2,0.8,3.8-0.3,5.6c0,0,0,0.1,0.1,0.2
	c1.1,0.1,2.3,0.3,3.5,0.4c0,0.1,0,0.2,0,0.2c-1.2,0.2-2.4,0.5-3.6,0.5c-0.9,0-1.4,0.3-1.8,1.2c0.7,0.6,1.4,1.4,2.1,1.9
	c0.6,0.5,0.9,1,0.9,1.7c0.1,1.1,0.1,2.2,0.2,3.3c0.5,0,1.1,0.1,1.9,0.1c-2.1,0.7-3,2.2-3.5,3.8c-0.3,0.8-0.6,1.5-1.1,2.1
	c-0.2,0.2-0.3,0.4-0.5,0.6c0.4,0.5,0.7,0.9,1,1.3C15.2,41.8,15.3,41.8,15.6,42z M23.5,10.9c-1.1,1.5-0.9,1.9,0.6,2.1
	c0.2,0,0.6-0.1,0.8-0.2c0.7-0.6,1.3-1.4,2-2c0.3-0.3,0.8-0.6,1.2-0.6c1.8-0.1,3.2-0.9,4.4-2.3c-2.5-1.5-5.1-2.3-8.1-2.2
	c0.7,1.4,1.4,2.8,2,4.1c-1.1-1.1-2.1-2.2-3.1-3.3c-0.5-0.6-1-0.7-1.7-0.5c-0.7,0.2-1.4,0.5-1.9,0.9c-1.5,1.4-3.4,1.9-5.4,2
	C11.9,9,10,9.9,8.8,12.1c-0.9,1.8-1.3,3.6-1.4,5.6c0,1.3,0.5,2.2,1.6,2.8c0.9-1.5,1.9-3,2.7-4.5c0.4-0.6,0.4-1.2-0.4-1.7
	c-0.4-0.2-0.6-0.5-1.1-0.9c2.2,0.4,2.5,0.4,2.8-1.5c0-0.2,0.2-0.4,0.2-0.7c0-0.6,0.4-1,1-1c1.1,0,2.2,0.1,3.2,0.4
	c1.7,0.5,2.4,0.4,3.5-1c0.3-0.4,0.7-0.7,1.1-1.1c-0.3,0.8-0.8,1.5-1.3,2.2c-0.2,0.3-0.3,0.7-0.4,1c0.5,0,1,0.1,1.4,0.1
	C22.4,11.6,22.8,11.3,23.5,10.9z M11,93.4c0,0.1,0,0.1,0,0.2c-1.1,1-2.3,2-3.4,3C7.1,97,7,97.6,7.2,98.2c0.3,0.9,0.8,1.7,0.9,2.6
	c0.2,1,0.2,2.2,0,3.1c-0.4,1.6-0.4,1.8,0.9,2.6c0.8-1.2,1.6-2.4,2.3-3.6c1.1-1.7,1-2.9-0.6-4.3c-0.3-0.3-0.7-0.5-1-0.8
	c0.1-0.1,0.2-0.2,0.3-0.3c0.6,0.4,1.2,0.9,1.9,1.3c0.3,0.2,0.7,0.2,1,0.4c0-0.4,0.2-0.9,0.1-1.3c-0.1-0.5-0.4-0.9-0.7-1.4
	c1.3,0.8,1.8,0.7,2-0.8c0-0.3-0.1-0.7-0.2-0.9c-0.6-0.7-1.4-1.3-2-2c-0.3-0.3-0.6-0.7-0.6-1.1c-0.1-1.8-0.9-3.2-2.3-4.5
	c-1.6,2.5-2.3,5.2-2.2,8.1C8.4,94.8,9.7,94.1,11,93.4z M107.5,63.3c-0.6-0.2-1.1-0.5-1.4-0.4c-0.3,0.2-0.4,0.8-0.6,1.3
	c-0.1,0.2,0.1,0.5,0.2,0.7c0.7,0.7,1.4,1.3,2,2c0.3,0.3,0.6,0.8,0.6,1.2c0.1,1.8,0.9,3.2,2.3,4.4c1.6-2.5,2.3-5.1,2.2-8.1
	c-1.4,0.7-2.8,1.4-4.4,2.2c1.1-1,1.8-2,2.8-2.6c1.8-1.1,1.6-1.7,0.9-3.4c-0.2-0.5-0.3-0.9-0.5-1.4c-0.4-1.1-0.4-2.2,0-3.4
	c0.5-1.5,0.4-1.7-0.9-2.5c-0.8,1.2-1.6,2.5-2.4,3.7c-1.1,1.6-0.9,2.8,0.6,4c0.4,0.3,0.8,0.6,1.1,0.9c-0.1,0.1-0.2,0.2-0.3,0.3
	c-0.6-0.4-1.2-0.9-1.9-1.3c-0.3-0.2-0.7-0.3-1-0.4c0,0.5-0.2,0.9-0.1,1.3C106.9,62.5,107.3,62.9,107.5,63.3z M95.9,145.8
	c-3-0.1-5.6,0.7-8.3,2.4c1,0.7,1.8,1.6,2.7,1.7c2.1,0.2,3.4,1.2,4.6,2.7c0,0.1,0.1,0.1,0.2,0.1c0.6,0.5,1.9,0.6,2.2,0.1
	c0.2-0.4-0.1-1-0.2-1.6c0.4,0.2,0.9,0.6,1.5,0.8c0.4,0.1,0.8-0.1,1.2-0.1c-0.1-0.3-0.2-0.7-0.3-0.9c-0.4-0.6-0.9-1.3-1.3-1.9
	c0.1-0.1,0.1-0.1,0.2-0.2c1.1,0.7,1.6,2.4,3.3,2.2c1.4-0.2,2.6-0.8,3.1-2.1c-1.2-0.6-2.4-1.1-3.6-1.7c-0.8-0.4-1.5-0.8-2.3-1.1
	c-0.7-0.3-1.3-0.1-1.8,0.5c-0.9,1.1-1.9,2.2-2.9,3.3c-0.1,0-0.1,0-0.2-0.1C94.5,148.5,95.2,147.2,95.9,145.8z M23.3,14.1
	c0-0.1,0-0.2-0.1-0.4c-0.3-0.1-0.5-0.3-0.8-0.4c-1.9-0.5-3.7-1.1-5.6-1.5c-1.3-0.3-2.3,0.2-2.6,1.1c-0.6,2.2-1.7,4-3.2,5.7
	c-0.4,0.5-0.2,0.8,0.4,0.9c0.3,0.1,0.6,0.2,0.9,0.3c-1.9,0.2-2,0.2-2.5,1.3c2.2,0.6,2,3,3.6,4.3c0.5-0.9,1.2-1.8,1.6-2.7
	c0.9-2,0.5-3-1.2-4.1c-0.1,0-0.1-0.1-0.3-0.3c1.2,0.2,1.5-0.3,1.5-1.3c0-0.6,0.4-1.5,0.8-1.6c1-0.2,1.6-0.8,1.8-1.9
	c0.7,1.7,0.9,1.9,2.4,1.6C21.1,15,22.2,14.5,23.3,14.1z M20.9,148c-1-1.4-1.4-1.8-2.9-1.7c-1.9,0.1-3.6-0.6-5.3-1.3
	c0.4-0.2,0.8-0.4,1.1-0.5c-0.1-1.7,0.1-3.4-0.9-5.1c-1.3,1.7-2.6,3.3-3.7,5c-1,1.5-0.6,2.2,1.2,2.6c1.1,0.2,1.8,0.6,2.5,1.4
	c0.5,0.6,0.9,0.6,1.5,0.2c0.4-0.3,0.9-0.5,1.3-0.7c0,0.1,0.1,0.1,0.1,0.2c-0.5,0.7-1.1,1.4-1.6,2.1c0.1,0.2,0.3,0.4,0.4,0.7
	c0.2,0.5,0.6,0.6,1,0.3C17.4,149.9,19.2,149,20.9,148z M110,52.5c-2.1-0.7-2.1-3-3.6-4.4c-1.1,2-2.2,4-3.3,6
	c0.3,0.3,0.7,0.5,1.1,0.8c-0.6,0.2-1.4-0.4-1.3,0.7c0.1,1.4,0.3,2.8,0.4,4.2s0.6,2.5,1.6,3.8c0.3-0.8,0.6-1.5,0.7-2.3
	c0.4-2.4,0.9-4.7,3.2-6.2c0.6-0.4,0.3-0.8-0.3-1c-0.4-0.1-0.7-0.2-1.1-0.4C109.1,53.7,109.4,53.5,110,52.5z M15.4,96.4
	c-0.1,0-0.3,0-0.4,0.1c-0.2,0.9-0.6,1.8-0.7,2.7c-0.4,2.2-0.9,4.3-3,5.6c0,0-0.1,0-0.1,0.1c-0.4,0.5-0.5,0.8,0.3,1
	c0.4,0.1,0.8,0.3,1.1,0.4c-1.7-0.1-2.3,0.2-2.7,1.2c2.1,0.5,2,3,3.6,4.3c1.1-2,2.2-4,3.3-6c-0.4-0.2-0.7-0.5-0.8-0.6
	c0.4-0.3,1-0.6,1-0.9c0-1.5-0.1-3-0.4-4.4C16.3,98.7,15.8,97.6,15.4,96.4z M54,11.4c-1.7-1.2-3.1-2.8-5.5-3c0,1.2,0,2.4,0,3.5
	c-0.6-0.4-0.9-1.1-1-1.9c0-0.7-0.1-1.5-0.4-2.2c-0.4-0.9-0.9-1-1.6-0.3c-0.6,0.5-1.2,0.9-1.8,1.3c-1.2,0.9-2.5,1.7-3.8,2.6
	c1.7,1,2.2,0.9,3.3-0.2c1.2-1.1,1.6-1.3,2.2-1.3c-0.7,0.9-1.5,1.8-2.4,2.9c0.5,0.1,0.8,0.2,1,0.2c1.8,0.2,3.7,1.2,5.5-0.1
	c0.1-0.1,0.3,0,0.5,0C51.6,13.3,52.7,12.4,54,11.4z M71.8,152.1c0-1.2,0-2.4,0-3.6c-2.4,0.3-3.8,1.8-5.6,3.1
	c0.8,0.5,1.5,1.1,2.3,1.3c1.4,0.2,2.8,0.6,4.2,0.7s2.8-0.3,4.3-0.6c-0.4-1.5-1.5-2.3-2.5-3.3c0.9,0.5,1.8,1.1,2.6,1.7
	c1.1,0.9,1.8,1,3,0.1c-0.2-0.2-0.5-0.4-0.8-0.6c-1.6-1.1-3.2-2.2-4.7-3.4c-0.7-0.5-1.2-0.5-1.5,0.3c-0.3,0.7-0.4,1.4-0.4,2.2
	C72.7,150.9,72.5,151.6,71.8,152.1z M105.8,83.1c-0.8,2.9-0.8,3.9-0.2,6.5c0,0.2,0,0.3,0,0.5c-0.3,1.6,0.5,2.8,1.5,4
	c1.2-1.7,2.8-3.1,3-5.5c-1.2,0-2.4,0-3.6,0c0.4-0.6,1.1-0.9,2-1c0.8,0,1.6-0.2,2.4-0.5c0.7-0.3,0.8-0.8,0.3-1.5
	c-0.6-0.8-1.1-1.7-1.7-2.5c-0.8-1-1.6-2-2.4-3.1c-0.9,1.6-0.8,2,0.2,3.2c0.7,0.8,1.2,1.6,1.8,2.4c-0.1,0-0.1,0.1-0.2,0.1
	C107.9,85,106.9,84.1,105.8,83.1z M12.7,80c1-1.8,0.9-2.2-0.2-3.4c-0.6-0.7-1.1-1.6-1.7-2.4c0.1,0,0.1,0,0.1-0.1
	c1,0.8,2,1.7,3.1,2.7c0.2-1.1,0.4-1.8,0.5-2.5c0.2-1.4,0.6-2.8-0.4-4.1c-0.1-0.1,0-0.3,0-0.5c0.3-1.6-0.5-2.8-1.5-4
	c-1.2,1.7-2.8,3.1-3.1,5.5c1.2,0,2.4,0,3.6,0c-0.5,0.6-1.1,0.9-2,1c-0.9,0.1-1.7,0.3-2.5,0.6c-0.6,0.2-0.6,0.8-0.1,1.3
	c0.5,0.5,0.9,1.1,1.3,1.7C10.8,77.2,11.7,78.6,12.7,80z M110.6,21.1c-0.1,0-0.2,0-0.3,0.1c-0.4-0.6-0.7-1.2-1.1-1.8
	c-0.6,0.7-1.1,1.4-1.4,1.8c0.5,1,0.8,1.9,1.2,2.7c0.4,0.9,0.8,1.7,1.3,2.8c1.9-2.6,3-5.2,2.6-8.3c-0.1-0.5-0.1-1.1,0-1.6
	c0.2-1.8-0.1-3.6-1-5.2c-0.3-0.6-0.7-1.1-1.6-0.8c-0.2,0.1-0.5-0.1-0.7-0.3c-0.2-0.1-0.4-0.3-0.6-0.4c-0.1,0-0.2,0-0.3,0
	c0.5,1.4-0.3,2.4-1.1,3.3c1.2,0.5,2.3,0.9,3.4,1.5c0.9,0.5,1,1.1,0.3,1.9C110.3,18.1,109.8,19.5,110.6,21.1z M101.1,12.5
	c0.2,0.4,0.3,0.8,0.5,1.3c0.4-0.2,0.9-0.4,1.4-0.6c0.5-0.3,0.9-0.6,1.4-0.8c0.6-0.3,1.2-0.3,1.7,0.3c0.2,0.3,0.6,0.4,1.1,0.8
	c0.3-1.2,0.6-2.2,0.9-3.5c-1,0.1-1.7,0.2-2.4,0.4c-1.6,0.3-3.2,0.4-4.7-0.5c-0.5-0.3-0.7-0.1-0.8,0.4c-0.1,0.4-0.2,0.8-0.3,1.1
	c0-1.1,0-2.1-1.2-2.7c-0.7,2.2-3,2.2-4.4,3.6c0.9,0.5,1.7,1.1,2.5,1.5C98.7,14.6,99.9,14.3,101.1,12.5
	C101.1,12.5,101.2,12.4,101.1,12.5z M84.2,14c2.5,1.4,6.5,0.6,8.2-1.8c-1.1-0.7-2.2-1.4-3.6-2.2c0.1,1.2,0.2,2.1,0.3,3.1
	c-0.7-0.6-1.1-1.1-1.2-2.1c0-0.6-0.3-1.2-0.7-1.7C86.7,8.7,86,8,85.3,8.4c-1.8,1.1-3.4,2.4-5.1,3.7c0.5,0.3,0.8,0.5,1.1,0.6
	c1.4,0.8,1.8,0.6,2.7-0.7c0.5-0.7,0.9-1.4,1.4-2.1c0.1,0,0.2,0.1,0.2,0.1C85.2,11.4,84.7,12.7,84.2,14z M13.6,113.5
	c-0.7,1.2-1.4,2.3-2.3,3.7c1.1-0.1,2-0.1,2.9-0.2c0,0.1,0.1,0.2,0.1,0.3c-0.6,0.3-1.3,0.5-1.9,0.8c-0.6,0.2-1.4,0.4-1.9,0.8
	c-0.6,0.5-1.4,1.2-0.7,2.1c1.1,1.6,2.4,3.2,3.6,4.8c0.3-0.4,0.4-0.7,0.6-0.9c0.9-1.5,0.7-2-0.7-2.9c-0.7-0.5-1.4-1-2.1-1.5
	c0-0.1,0.1-0.1,0.1-0.2c1.4,0.5,2.7,1,4.1,1.5C16.6,119.1,16,116.3,13.6,113.5z M13.4,39.6c0.2-0.4,0.3-0.6,0.4-0.7
	c1-1.8,0.9-2.1-0.8-3.2c-0.6-0.4-1.2-0.9-1.8-1.3c0-0.1,0.1-0.1,0.1-0.2c1.3,0.5,2.6,1,3.9,1.5c1.3-2.8,0.6-6.3-1.8-8.2
	c-0.7,1.1-1.4,2.2-2.2,3.6c1.2-0.1,2.1-0.2,3-0.3c-0.5,0.6-1.1,1.1-2,1.2c-0.6,0-1.2,0.3-1.7,0.6c-1,0.6-1.3,1.7-0.6,2.6
	C11,36.7,12.2,38.1,13.4,39.6z M31.2,153.2c0.1-1,0.1-1.9,0.2-3c-0.8,0.5-1.4,0.8-1.9,1.2c-0.6,0.4-1.1,0.7-1.7,1.1
	c2.5,2.4,6,3.1,8.2,1.7c-0.5-1.3-1-2.6-1.4-3.8c0.1,0,0.2-0.1,0.2-0.1c0.6,0.9,1.2,1.7,1.8,2.6c0.4,0.6,0.9,0.8,1.5,0.5
	c0.6-0.2,1.2-0.6,1.8-0.9c-0.8-0.7-1.5-1.4-2.2-1.9c-0.7-0.6-1.4-1.1-2.1-1.6c-1-0.6-1.9-0.4-2.6,0.5c-0.3,0.5-0.7,1.2-0.7,1.8
	C32.3,152.1,31.8,152.6,31.2,153.2z M108.8,39.5c0,0.1-0.1,0.1-0.1,0.2c-1.3-0.5-2.7-1-4.1-1.5c-1.4,2.4-0.7,5.9,1.7,8.2
	c0.7-1.1,1.4-2.3,2.3-3.7c-1.2,0.1-2.1,0.2-3.1,0.3c0.6-0.6,1.2-1.2,2.1-1.2c0.6,0,1.3-0.3,1.8-0.7c0.5-0.4,1.1-1.4,0.9-1.8
	c-1.1-1.8-2.4-3.4-3.8-5.2c-0.3,0.5-0.5,0.8-0.6,1c-0.8,1.5-0.7,1.9,0.7,2.8C107.3,38.5,108,39,108.8,39.5z M106.3,132.5
	c0.7-1.2,1.4-2.3,2.1-3.4c-0.1-0.1-0.1-0.2-0.2-0.2c-0.9,0.1-1.8,0.2-2.8,0.3c0.6-0.7,1.2-1.2,2.2-1.2c0.6,0,1.2-0.3,1.7-0.7
	c0.5-0.4,1.3-1.1,0.8-1.9c-1.1-1.7-2.4-3.3-3.7-5.1c-1.6,2.3-1.5,2.8,0.6,4.2c0.6,0.4,1.1,0.8,1.7,1.2c0,0.1-0.1,0.1-0.1,0.2
	c-1.4-0.5-2.7-1.1-4.1-1.6C103.2,126.8,103.9,130.2,106.3,132.5z M106.2,141.4c-1.4,0-1.7,0.3-1.1,1.5c0.6,1.4,1.7,2.8,1.2,4.5
	c0.7,0,1.2,0,1.8,0c0-0.3,0-0.5,0-0.7c-0.4-2-0.4-4,0.9-5.8c0.1-0.1-0.2-0.5-0.4-0.7c-0.3-0.2-0.7-0.2-1-0.4c1-0.1,2,0,2.6-1.2
	c-2.1-0.6-2.1-3-3.6-4.4c-0.6,1.1-1.3,2-1.7,3.1c-0.7,2-0.4,2.7,1.4,3.8C106.2,141.2,106.2,141.3,106.2,141.4z M61.2,11.2
	c-0.2,0.4-0.4,0.8-0.7,1.2c1.9,0.5,5,0.1,6-0.7c-1.8-1.4-3.6-2.9-5.5-4.4c-1.8,1.3-3.6,2.6-5.5,3.9C57.6,12.4,59.4,12.6,61.2,11.2z
	 M107.5,95.6c-1.2,2.1-1.6,3.8-0.2,5.6c-0.3-0.2-0.7-0.3-1.2-0.5c-0.2,2.2-0.2,4.1,0.7,6.2c1.6-1.9,3-3.8,4.6-5.7
	C110.1,99.3,108.9,97.6,107.5,95.6z M8.5,58.7c1.2,2,2.2,4,4,5.4c1.1-1.9,1.3-3.7-0.1-5.5c0.4,0.2,0.8,0.4,1.3,0.7
	c0.1-2.2,0.2-4.2-0.8-6.2C11.4,55.1,10,56.9,8.5,58.7z M38.2,7.1c0.9,0.7,1.7,1.3,2.5,1.9c1.5-0.8,3-1.5,4.5-2.3
	c-4-3.1-8.2-1.3-10.8,1.1c1.5,1.1,3,2.2,4.4,3.3C40.5,9.4,38.6,8.4,38.2,7.1z M7.9,74.6c-3,3.8-1.6,7.9,1.1,10.8
	c1.1-1.5,2.2-3,3.3-4.4c-1.6-1.7-2.6,0.3-4,0.7c0.7-0.9,1.3-1.7,1.9-2.5C9.5,77.7,8.7,76.2,7.9,74.6z M110.9,74.5
	c-1.1,1.5-2.2,3-3.3,4.4c0.9,0.9,1.5,0.9,2.5,0.3c0.5-0.3,1-0.6,1.4-0.9c0,0,0,0.1,0,0.1c-0.6,0.8-1.3,1.6-1.8,2.4
	c0.3,0.8,0.6,1.6,1,2.3c0.4,0.8,0.9,1.5,1.4,2.2C114.9,81.5,113.6,77.7,110.9,74.5z M96.7,153.8c1.8,1.5,2.8,1.7,5.8,1.7
	c0.9,0,1.5-0.3,1.8-1.1c0-0.1,0.1-0.1,0.2-0.2c0.2,0.3,0.3,0.5,0.4,0.7c2.1-1.3,3.4-4.2,2.9-6.2c-0.5,0.1-1.1,0.1-1.6,0.2
	c-0.5,1.8-1.3,3-3.3,3.3C100.9,152.5,98.9,153.2,96.7,153.8z M59,151.2c1.8,1.5,3.6,1.3,5.8-0.1c-1.9-1.3-3.6-2.4-5.3-3.6
	c-0.1-0.1-0.5-0.1-0.6,0c-1.8,1.4-3.5,2.7-5.3,4.2c2.1,0.9,4.1,0.9,6.2,0.6C59.4,152,59.2,151.6,59,151.2z M79.6,149.1
	c0.5-0.3,0.9-0.6,1.3-0.9c0.4-0.3,0.8-0.7,1.2-1c-0.2,0.6-0.6,1.1-0.9,1.6c-0.6,0.9-0.6,1.5,0.3,2.4c1.5-1.1,3-2.2,4.4-3.3
	c-3.9-3.3-7.8-3.6-10.8-1C76.7,147.6,78.1,148.3,79.6,149.1z M111.3,91.9c0.8-0.4,2.1-0.5,1.9-1.8c-0.1-1-0.5-1.9-0.7-2.8
	c-0.1,0-0.2,0-0.3,0c-1.3,2.6-2,5.5-4.1,7.2c1.4,2,2.7,3.8,4,5.5c0.9-1.4,1.2-3.7,0.6-4.8c-0.7,0.2-1.4,0.3-2.1,0.5
	c0.5-0.6,1.2-0.9,1.7-1.5c0.4-0.5,0.6-1.2,0.8-1.8C112.4,92.3,111.9,92.2,111.3,91.9z M9.6,64.2c0,0,0.1,0.1,0.1,0.1
	c-0.7,0.5-1.5,1-2.1,1.6c-0.4,0.4-0.5,1-0.7,1.5c0.4,0.1,0.9,0.3,1.4,0.4c0.1,0,0.1,0.1,0.4,0.2c-1,0.4-2.2,0.6-2,1.8
	c0.2,0.9,0.5,1.8,0.7,2.8c0.1,0,0.2,0,0.3,0c1.4-2.5,1.9-5.5,4.2-7.2c-1.4-2-2.8-3.8-4.1-5.7c-0.4,1.6-1.2,3.2-0.6,5
	C8.1,64.5,8.8,64.3,9.6,64.2z M47.2,6.1c0,0.2,0,0.3,0,0.4c1.3,0.6,2.7,1,4,1.7c1.3,0.7,2.4,1.6,3.3,2.3c1.9-1.4,3.7-2.7,5.5-3.9
	c-1.4-0.8-3.6-1.2-4.9-0.6c0.2,0.8,0.4,1.6,0.6,2.4C55,7.8,54.6,7,54,6.4c-0.4-0.4-1.1-0.5-1.6-0.7c-0.1,0.5-0.2,1-0.3,1.5
	c0,0,0,0.1-0.1,0.2c-0.6-0.7-0.5-2.1-1.9-2C49.1,5.5,48.2,5.9,47.2,6.1z M73,146.6c0-0.1,0-0.2,0-0.3c-0.8-0.2-1.7-0.6-2.5-0.7
	c-0.8-0.1-1.5,0.1-1.7,1.1c-0.1,0.3-0.3,0.6-0.4,0.8c-0.2-0.5-0.3-1-0.4-1.6c-0.6,0.3-1.2,0.5-1.8,0.8c-0.2,0.1-0.4,0.5-0.6,0.8
	c-0.3,0.4-0.6,0.8-1.1,1.4c0.3-1.1,0.4-1.9,0.7-2.8c-1.8-0.5-3.4,0.1-5.2,0.7c0.7,0.4,1.3,0.7,1.7,1.1c1,0.7,2.1,1.4,3,2.3
	c0.7,0.7,1.1,0.8,1.7,0.1c1.2-1.2,2.6-2.1,4.2-2.5C71.5,147.4,72.2,146.9,73,146.6z M26.1,13.4c0.9,0.1,1.5,0.2,2,0.4
	c0.6,0.1,1.2,0.4,1.8,0.5c1.5,0.4,2.7-0.2,3.6-1.5c0.3-0.5,0.7-1,1-1.5c0.1,0.2,0,0.3,0,0.4c0,0.4-0.1,0.9,0.1,1.2
	c0.1,0.2,0.8,0.1,1.1,0c0.8-0.4,1.6-0.9,2.7-1.4c-0.9-0.4-1.6-1.1-2.3-1.1c-0.8,0-1.3-0.3-1.9-0.8c-0.3-0.3-0.6-0.6-1-0.9
	c-0.9,1.7-2.6,2.3-4.2,3C28.1,12.1,27.2,12.7,26.1,13.4z M12.7,81.4c-0.4,0.9-1,1.6-1,2.3c0,0.8-0.3,1.3-0.8,1.8
	c-0.3,0.3-0.6,0.7-1,1.1c1.7,0.9,2.3,2.6,3,4.1c0.4,1,1.1,1.9,1.7,2.9c0.4-1.3,0.7-2.4,0.9-3.6c0.4-1.6-0.1-2.8-1.5-3.7
	c-0.5-0.3-0.9-0.6-1.3-0.9c0.6-0.1,1.3,0,1.4-0.3c0.2-0.4,0-1-0.2-1.5C13.7,83,13.2,82.3,12.7,81.4z M87,148.7
	c-0.4,0.4-0.7,0.7-1,0.9c-0.4,0.3-0.9,0.9-1.3,0.8c-1.2-0.2-1.8,0.5-2.7,1.2c1,0.5,1.8,1,2.8,1.4c0.2,0.1,0.7,0.1,0.9,0
	c0.2-0.2,0.2-0.6,0.2-0.9c0-0.2,0-0.3,0-0.5c0.5,0.4,0.8,0.9,1.1,1.4c0.6,1,1.5,1.6,2.7,1.4c1.4-0.2,2.9-0.6,4.3-0.9
	C91.9,151.4,88.5,151.6,87,148.7z M109.9,73.4c-1.6-0.9-2.2-2.3-2.8-3.8c-0.5-1.1-1.2-2.1-1.8-3.2c-0.3,1.2-0.5,2.2-0.8,3.2
	c-0.6,2-0.1,3.2,1.6,4.2c0.5,0.3,0.9,0.6,1.4,0.9c-0.3,0.1-0.5-0.1-0.7-0.1c-0.4,0-0.8,0-1.1,0.2c-0.2,0.2-0.1,0.7,0,1
	c0.4,0.9,0.9,1.7,1.3,2.6c0.1,0,0.2,0,0.3,0c0.3-0.7,0.6-1.4,0.9-2.2c0.2-0.5,0.3-1,0.5-1.4C109,74.3,109.4,73.9,109.9,73.4z
	 M19,152.3c0.2,0.4,0.4,0.6,0.5,0.7c0.7,1.2,1.1,1.4,2.5,1.2c1.6-0.2,2.8-1.1,4-2.1c-1.3-1.4-3.7-1.4-4.3-3.5
	c-1,0.6-1.1,0.9-1.1,2.6c-0.2-0.4-0.3-0.7-0.4-1.1c-0.1-0.5-0.4-0.7-0.8-0.3c-1.1,0.8-2.2,1.6-3.5,2.6c0.5,0.4,1,0.8,1.6,1.1
	C18.7,154.2,18.9,154,19,152.3z M7.6,144.4c0.6-1,1.4-1.8,1.7-2.8c0.3-0.9,0.1-2,0.1-3.1c0.4,0.7,0.8,1.3,1.2,2.1
	c0.6-0.7,1.1-1.4,1.6-2c-0.4-0.7-0.9-1.2-1.1-1.8c-0.5-1.1-0.9-2.2-1.3-3.4C7.1,135.8,6,141.9,7.6,144.4z M13.2,137.3
	c0.4-0.9,0.6-1.6,0.9-2.3c0.1-0.3,0.2-0.7,0.4-0.7c1-0.2,1.1-1,1.1-1.7c0.2-2.1-0.7-3.7-2.2-5.2c-0.4,0.5-0.8,0.9-1,1.4
	c-0.6,1.3-0.8,2.9-2.3,3.7c0.2,0.3,0.3,0.5,0.4,0.7C11.4,134.5,12.2,135.8,13.2,137.3z M13.2,51.1c0.3-0.9,0.6-1.6,0.9-2.2
	c0.1-0.3,0.3-0.6,0.5-0.8c0.3-0.4,0.9-0.8,1-1.2c0.5-2-0.8-4.7-2.3-5.6c-0.4,0.7-0.9,1.4-1.2,2.2c-0.3,1-0.7,1.8-1.5,2.5
	c-0.2,0.2-0.3,0.7-0.2,0.9C11.3,48.2,12.2,49.6,13.2,51.1z M41.5,152.2c1.5,1.5,3.2,2.4,5.2,2.2c0.5,0,1.4-0.3,1.5-0.6
	c0.3-0.9,1-0.9,1.6-1.1c0.5-0.2,1-0.5,1.6-0.8c-1.5-0.9-2.8-1.8-4.2-2.7c-0.2-0.1-0.7-0.1-0.8,0.1c-0.8,0.9-1.8,1.3-2.9,1.7
	C42.9,151.3,42.3,151.8,41.5,152.2z M106.7,108.8c-0.4,0.9-0.6,1.6-0.9,2.3c-0.1,0.3-0.2,0.7-0.4,0.7c-0.9,0.2-1,0.9-1.1,1.6
	c-0.2,2.1,0.7,3.8,2.2,5.3c0.5-0.8,1-1.5,1.2-2.2c0.3-1,0.7-1.9,1.6-2.6c0.2-0.1,0.2-0.7,0.1-0.9
	C108.5,111.7,107.7,110.4,106.7,108.8z M78.7,12.1c-0.8-0.4-1.4-1-2.2-1.2c-1-0.3-2-0.7-2.7-1.6c-0.1-0.2-0.6-0.3-0.8-0.2
	c-1.4,0.8-2.7,1.7-4.3,2.7c0.9,0.3,1.6,0.6,2.2,0.9c0.3,0.1,0.8,0.3,0.8,0.5c0.2,1,1,1.1,1.7,1.1C75.5,14.5,77.1,13.7,78.7,12.1z
	 M106.7,22.6c-0.3,0.9-0.6,1.6-0.9,2.3c-0.1,0.3-0.2,0.7-0.4,0.7c-1.1,0.2-1.1,1.1-1.2,1.9c-0.1,2,0.7,3.6,2.2,5.1
	c0.4-0.7,0.9-1.3,1.2-2c0.4-1.1,0.7-2.1,1.7-2.9c0.2-0.1,0.2-0.6,0.1-0.8C108.5,25.5,107.7,24.2,106.7,22.6z M12.2,52.4
	c-0.4-0.7-0.9-1.2-1.1-1.8c-0.5-1.1-0.9-2.3-1.3-3.5C6.8,50,6.1,54.9,7.9,57.5c1.4-1.4,2.3-2.9,1.3-5c0.1,0,0.2,0,0.3,0
	c0.4,0.6,0.7,1.2,1.1,1.9C11.2,53.7,11.7,53,12.2,52.4z M72.7,8.5c-2.9-2.9-7.8-3.7-10.4-1.8c1.4,1.4,2.9,2.2,5,1.3
	c0,0.1,0,0.2,0,0.3c-0.6,0.4-1.2,0.7-1.9,1.1c0.7,0.6,1.4,1.1,2,1.6c0.6-0.4,1.2-0.9,1.8-1.2C70.3,9.3,71.5,8.9,72.7,8.5z M58,146.7
	c-3.2-1.7-8-0.9-10.3,1.8c1.7,0.8,3.5,1.6,5.3,2.4c0.5-0.4,1.1-0.9,1.8-1.4c-0.8-0.5-1.4-0.9-2-1.2C54.9,149,56.5,148.2,58,146.7z
	 M110.1,112.8c2.9-2.9,3.7-8.3,1.8-10.4c-1.8,2-1.9,2.7-1.4,5.1c-0.4-0.7-0.8-1.3-1.2-2c-0.5,0.7-1.1,1.4-1.6,2
	c0.4,0.6,0.9,1.1,1.1,1.8C109.2,110.4,109.6,111.6,110.1,112.8z M84.7,7.8c-3.2-2.6-6-2.3-10.1,0.4c0.4,0.4,0.8,0.8,1.2,1.1
	c0.1,0.1,0.2,0.2,0.3,0.3c0.9,0.7,1.3,0.6,1.9-0.4c0.4-0.7,0.9-1.3,1.4-1.9c0.1,0.1,0.1,0.1,0.2,0.2c-0.4,1.1-0.9,2.2-1.3,3.4
	c0.3,0.2,0.6,0.5,1,0.8c0.8-0.9,1.4-1.8,2.2-2.6c0.2-0.2,0.4-0.4,0.7-0.5C82.9,8.2,83.7,8,84.7,7.8z M12,127.7
	c0.2-0.3,0.5-0.6,0.7-1c-0.9-0.8-1.8-1.5-2.7-2.3c-0.2-0.2-0.3-0.4-0.4-0.6c-0.2-0.8-0.4-1.6-0.7-2.6c-2.7,3.5-2,6.3,0.5,10.1
	c0.5-0.6,1-1.1,1.5-1.7c0.6-0.8,0.4-1.2-0.5-1.7c-0.8-0.4-1.5-0.8-1.9-1.7C9.7,126.8,10.8,127.2,12,127.7z M110.4,28.6
	c-0.4,0.5-0.8,0.9-1.2,1.4c-0.1,0.1-0.1,0.1-0.2,0.2c-0.7,0.9-0.5,1.3,0.4,1.8c1.2,0.6,1.5,0.9,1.7,1.6c-1.1-0.4-2.2-0.8-3.3-1.3
	c-0.2,0.3-0.5,0.6-0.8,1c0.9,0.8,1.8,1.5,2.6,2.2c0.2,0.2,0.4,0.4,0.4,0.6c0.2,0.8,0.4,1.6,0.7,2.6
	C113.3,35.4,113.1,32.8,110.4,28.6z M45.6,148.3c-4.2-2.7-6.9-2.9-10-0.5c0.7,0.3,1.4,0.6,2.1,0.9c0.3,0.1,0.8,0.2,1,0.4
	c0.8,0.8,1.4,1.7,2.2,2.6c0.4-0.3,0.7-0.6,1-0.8c-0.5-1.2-0.9-2.3-1.3-3.4c0.1-0.1,0.2-0.1,0.2-0.2c0.5,0.7,1,1.3,1.5,2.1
	c0.5,0.8,0.9,1,1.6,0.4C44.5,149.4,45,148.9,45.6,148.3z M9.5,45.2c0.5-0.5,0.9-1,1.4-1.5c0.7-0.9,0.5-1.3-0.4-1.9
	c-0.7-0.4-1.3-1-1.9-1.4c0.1-0.1,0.1-0.1,0.2-0.2c1.1,0.4,2.3,0.9,3.4,1.3c0.2-0.3,0.5-0.6,0.8-1c-0.9-0.8-1.8-1.5-2.6-2.2
	c-0.2-0.2-0.4-0.4-0.4-0.7C9.5,36.8,9.3,36,9,35.1C6.3,38.7,7,41.5,9.5,45.2z M107.1,119.4c0.9,0.8,1.8,1.5,2.6,2.2
	c0.2,0.2,0.4,0.4,0.5,0.7c0.2,0.8,0.4,1.6,0.7,2.6c2.7-3.5,1.9-6.5-0.5-10.1c-0.4,0.5-0.9,0.9-1.3,1.4c-0.8,0.9-0.6,1.4,0.4,2
	c0.6,0.3,1.2,0.8,1.8,1.3c-0.1,0.1-0.1,0.2-0.2,0.2c-1.1-0.4-2.1-0.8-3.2-1.2C107.6,118.7,107.4,119,107.1,119.4z M111,40.8
	c-1.3,2.4-2.5,4.6-3.8,6.9c0.9,0.4,2.1,0.9,3.4,1.5c-0.9,0.1-1.6,0.1-2.3,0.1c0,0.1-0.1,0.2-0.1,0.3c0.7,0.6,1.3,1.3,2.1,2
	C111.9,48.1,112.2,44.6,111,40.8z M93.7,11.3c0.4-0.9,0.9-2.1,1.6-3.4c0,0.9,0.1,1.6,0.1,2.3c0.1,0,0.2,0.1,0.4,0.1
	c0.6-0.7,1.3-1.3,1.9-2c-2.9-1.6-9.1-1.8-10.6-0.5C89.2,8.9,91.4,10,93.7,11.3z M9.4,22C8,25.7,7.6,29.2,8.8,32.9
	c1.3-2.3,2.5-4.5,3.7-6.9c-1-0.4-2.1-1-3.3-1.5c0-0.1,0-0.1,0.1-0.2c0.7,0,1.3,0,2.2,0C10.8,23.5,10.1,22.8,9.4,22z M110.4,138
	c1.4-3.7,1.8-7.2,0.6-11c-1.3,2.3-2.5,4.5-3.7,6.8c1,0.4,2.2,1,3.4,1.5c0,0.1-0.1,0.1-0.1,0.2c-0.7,0-1.4,0-2.1,0
	c0,0.1-0.1,0.2-0.1,0.3C109,136.5,109.7,137.2,110.4,138z M12.6,112.2c-1-0.4-2.2-1-3.4-1.5c0-0.1,0.1-0.1,0.1-0.2
	c0.7,0,1.4,0,2.1,0c0.1-0.1,0.1-0.2,0.1-0.3c-0.7-0.6-1.3-1.3-2.1-2c-1.4,3.6-1.7,7.1-0.6,10.9C10.1,116.8,11.3,114.6,12.6,112.2z
	 M26.6,151.6c0.1,0,0.2,0.1,0.3,0.1c1.6-2.2,4.3-2.6,6.6-4c-3.9-1.1-7.4-0.9-10.8,0.5c0.6,0.8,1.2,1.5,1.8,2.2
	c0.1-0.1,0.2-0.1,0.3-0.2c0-0.7,0-1.3,0-2c0.1,0,0.1,0,0.2-0.1C25.5,149.3,26,150.4,26.6,151.6z M107.7,9.1c-0.2-1.4-2-3.3-3.5-3.6
	c-1.7-0.3-4,0.8-4.9,2.4c1.1,0.4,2.1,0.9,3.1,1.1c2,0.3,2.2,0.1,2.2-1.9C105.4,8.2,105.8,9.9,107.7,9.1z M109.7,147
	c1.2-0.3,1.4-1.1,1.1-2.2c0.4,0.4,0.7,0.6,1,0.9c1.9-1.8,1.5-4.7-0.9-6.1C108.7,141.7,109,144.3,109.7,147z M107.2,14.2
	c-1.4,2.1-1.5,4.9-0.2,6.3c1-1.2,2-2.5,3-3.7c0.5-0.6,0.3-1.1-0.3-1.4C108.9,14.9,108,14.6,107.2,14.2z M13.8,151.7
	c-0.7-1.6-1.9-2.5-3.2-3.3c-0.7-0.5-1.7-0.6-2.5-0.9c-0.3,1.4,0,2.7,1,3.6C10.6,152.3,12.1,152.1,13.8,151.7z"/>
</svg>
